<svg width="80" height="42" viewBox="0 0 80 42" fill="currentColor" xmlns="http://www.w3.org/2000/svg">
  <style>
    :root {
      --favicon-color: #fff; /* Цвет для темной темы */
    }
    @media (prefers-color-scheme: light) {
      :root {
        --favicon-color: #000; /* Цвет по умолчанию для светлой темы */
      }
    }
  </style>
  <path d="M55.412 9.648C55.3773 9.82133 54.9787 9.83867 54.216 9.7C52.7253 9.45733 51.4253 9.21467 50.316 8.972C50.2467 9.52667 50.1253 10.324 49.952 11.364C49.016 16.2867 48.0107 20.412 46.936 23.74C45.9653 26.6867 44.492 30.1533 42.516 34.14C44.18 32.3027 45.636 31.1587 46.884 30.708C47.1613 30.604 47.3 30.6387 47.3 30.812C47.3 30.8813 47.2133 30.9507 47.04 31.02C46.8667 31.0893 46.7453 31.1587 46.676 31.228C45.4973 31.9907 44.18 33.2387 42.724 34.972C42.0307 35.7693 41.216 36.792 40.28 38.04C39.7947 38.664 39.344 38.976 38.928 38.976C38.616 38.976 38.5813 38.7507 38.824 38.3C39.0667 37.78 39.3613 37.104 39.708 36.272C41.268 32.8053 42.8453 28.576 44.44 23.584C45.9653 18.8347 47.0227 14.9693 47.612 11.988C47.924 10.4973 48.132 9.35333 48.236 8.556C47.8547 8.48666 47.196 8.36533 46.26 8.192C42.5853 13.9813 38.6507 19.0947 34.456 23.532C35.2187 23.74 36.1893 23.9827 37.368 24.26C39.24 24.676 41.1293 24.9533 43.036 25.092C43.4173 25.1267 43.5907 25.1613 43.556 25.196C43.556 25.3693 43.2613 25.456 42.672 25.456C40.2107 25.5253 37.8533 25.352 35.6 24.936C35.0453 24.832 34.3693 24.6587 33.572 24.416C30.764 27.1893 27.748 29.772 24.524 32.164C17.14 37.676 11.0387 40.6227 6.22 41.004C3.1 41.2467 1.41867 40.692 1.176 39.34C1.03733 38.5427 1.41867 37.7627 2.32 37C3.11733 36.272 4.15733 35.7173 5.44 35.336C5.89067 35.1973 6.15067 35.1627 6.22 35.232C6.25467 35.3013 6.116 35.4053 5.804 35.544C3.96667 36.272 3.048 37.2947 3.048 38.612C3.048 39.964 4.14 40.588 6.324 40.484C10.6573 40.2413 16.3253 37.3293 23.328 31.748C26.2747 29.3907 29.1693 26.7907 32.012 23.948C31.492 23.7747 30.9547 23.5667 30.4 23.324C29.672 23.012 29.3947 22.6653 29.568 22.284C29.672 22.076 29.8453 21.972 30.088 21.972C30.4 21.972 30.972 22.1453 31.804 22.492C32.0813 22.596 32.4627 22.752 32.948 22.96C37.108 18.7653 41.2853 13.7733 45.48 7.984L36.952 6.268C31.9947 5.228 29.0307 4.62133 28.06 4.448C25.0787 3.85867 22.2013 3.42533 19.428 3.148C18.596 3.044 17.764 2.992 16.932 2.992C10.7267 2.992 7.74533 4.84666 7.988 8.556C8.05733 9.45733 8.69867 10.5147 9.912 11.728C10.9173 12.6987 12.0093 13.5307 13.188 14.224C13.5 14.4667 13.6387 14.588 13.604 14.588C13.5347 14.6573 13.292 14.6053 12.876 14.432C8.85467 12.664 6.60133 10.8267 6.116 8.92C6.012 8.504 5.96 8.10533 5.96 7.724C5.96 5.71333 7.43333 4.27466 10.38 3.408C12.4253 2.784 14.9907 2.472 18.076 2.472C18.8387 2.472 19.532 2.48933 20.156 2.524C24.004 2.76667 29.7587 3.70267 37.42 5.332C39.0147 5.67866 41.84 6.35466 45.896 7.36C46.5547 6.45867 47.1613 5.55733 47.716 4.656C48.3053 3.72 48.652 2.87066 48.756 2.108C48.7907 1.86533 48.808 1.44933 48.808 0.859997C48.808 0.513331 48.8773 0.339998 49.016 0.339998C49.536 0.339998 49.9173 0.963998 50.16 2.212C50.472 3.876 50.5413 5.956 50.368 8.452C51.4427 8.72933 52.76 9.024 54.32 9.336C55.048 9.47467 55.412 9.57867 55.412 9.648ZM48.756 3.616C48.6867 3.824 48.4787 4.25733 48.132 4.916C47.4733 6.12933 46.9707 6.996 46.624 7.516C46.832 7.55066 47.1093 7.62 47.456 7.724C47.8373 7.828 48.1147 7.91467 48.288 7.984C48.4613 6.84 48.6173 5.384 48.756 3.616ZM62.5258 10.376C62.5258 10.4107 62.4392 10.48 62.2658 10.584C61.9538 10.7573 61.6418 11 61.3298 11.312C60.7405 11.9013 59.8045 13.2707 58.5218 15.42C57.0658 17.916 55.8005 20.36 54.7258 22.752C52.5072 27.744 51.0165 31.696 50.2538 34.608C49.9072 35.8907 49.8552 36.5667 50.0978 36.636C50.6178 36.8093 51.3458 36.0987 52.2818 34.504C52.6285 33.9493 52.8192 33.672 52.8538 33.672C53.0618 33.7413 52.9578 34.14 52.5418 34.868C51.3978 36.7747 50.3405 37.7107 49.3698 37.676C48.5032 37.6413 48.1218 36.9653 48.2258 35.648C48.2952 34.7467 48.4858 33.8107 48.7978 32.84C50.0112 28.9227 51.3805 25.3693 52.9058 22.18C55.3325 17.0493 57.8805 13.3747 60.5498 11.156C61.2432 10.5667 61.8325 10.272 62.3178 10.272C62.4218 10.272 62.4912 10.3067 62.5258 10.376ZM66.8792 23.064C66.8792 23.7573 66.5499 24.3813 65.8912 24.936C64.8166 25.8373 63.5859 26.2187 62.1992 26.08C61.6446 26.0107 61.1419 25.872 60.6912 25.664C60.0672 26.5653 59.5819 27.3453 59.2352 28.004C58.2299 30.0493 57.5019 31.8693 57.0512 33.464C56.8779 34.1573 56.7912 34.7467 56.7912 35.232C56.7912 36.0293 57.0166 36.4973 57.4672 36.636C57.9872 36.7747 58.6459 36.532 59.4432 35.908C60.2752 35.284 60.9686 34.4867 61.5232 33.516C62.1126 32.5453 62.5632 31.4533 62.8752 30.24C62.9792 29.824 63.0832 29.616 63.1872 29.616C63.3259 29.616 63.3779 29.8067 63.3432 30.188C63.3086 31.1587 62.8926 32.32 62.0952 33.672C60.4659 36.4453 58.7672 37.6933 56.9992 37.416C55.6472 37.208 54.9712 36.22 54.9712 34.452C54.9712 33.828 55.0579 33.1693 55.2312 32.476C55.7512 30.4307 56.6699 28.5587 57.9872 26.86C60.5179 23.6707 63.0659 22.0933 65.6312 22.128C66.4632 22.128 66.8792 22.44 66.8792 23.064ZM65.3712 23.22C65.3712 22.8733 65.1632 22.7 64.7472 22.7C64.1579 22.7 63.4299 23.0293 62.5632 23.688C61.8352 24.2427 61.2979 24.78 60.9512 25.3C61.4019 25.5427 61.8699 25.664 62.3552 25.664C63.0832 25.6987 63.7766 25.4387 64.4352 24.884C65.0939 24.2947 65.4059 23.74 65.3712 23.22ZM79.0224 23.272C78.6411 23.1333 78.1558 23.168 77.5664 23.376C76.8384 23.6187 76.0238 24.104 75.1224 24.832C73.6664 26.0107 72.4358 27.1027 71.4304 28.108C71.4304 28.4893 71.4478 29.1827 71.4824 30.188C71.4824 31.228 71.4824 32.0773 71.4824 32.736C71.4824 34.1227 71.4998 35.0067 71.5344 35.388C71.5691 35.908 71.7078 36.168 71.9504 36.168C72.2278 36.168 72.6091 35.752 73.0944 34.92C73.2678 34.6427 73.3718 34.5213 73.4064 34.556C73.4758 34.5907 73.4931 34.6773 73.4584 34.816C73.3544 35.336 73.0251 35.908 72.4704 36.532C71.9158 37.1213 71.4131 37.416 70.9624 37.416C70.2344 37.3813 69.7838 36.7227 69.6104 35.44C69.5758 35.1973 69.5584 34.2613 69.5584 32.632V29.512C68.4144 30.5867 67.3398 31.7307 66.3344 32.944C64.7051 34.8853 63.6304 36.4453 63.1104 37.624C62.8331 38.248 62.7118 38.56 62.7464 38.56C62.5038 38.56 62.4864 38.2133 62.6944 37.52C63.1798 35.8907 64.2024 34.1573 65.7624 32.32C66.8024 31.1067 68.0678 29.8067 69.5584 28.42C69.5238 27.8653 69.4544 27.0333 69.3504 25.924C69.1771 24.676 68.8478 23.9307 68.3624 23.688C68.0851 23.5493 67.7731 23.5147 67.4264 23.584C67.0798 23.6533 66.9064 23.688 66.9064 23.688C66.8371 23.5493 67.0104 23.376 67.4264 23.168C68.0504 22.856 68.6398 22.7173 69.1944 22.752C70.2691 22.8213 70.9451 23.6533 71.2224 25.248C71.3264 25.8373 71.3958 26.4267 71.4304 27.016C72.2278 26.184 73.3371 25.196 74.7584 24.052C75.8331 23.1853 76.7864 22.6827 77.6184 22.544C78.5544 22.3707 79.0224 22.6133 79.0224 23.272Z"
    fill="var(--favicon-color)"
  />
</svg>
