<svg width="854" height="854" viewBox="0 0 854 854" fill="none" stroke="currentColor" xmlns="http://www.w3.org/2000/svg">
<path d="M281.505 426.957C281.505 316.12 297.842 215.797 324.24 143.202C337.44 106.902 353.146 77.5617 370.561 57.3054C387.978 37.0474 407.057 25.925 427.016 25.925C446.976 25.925 466.055 37.0474 483.472 57.3053C500.887 77.5616 516.592 106.902 529.792 143.202C556.191 215.797 572.528 316.12 572.528 426.957C572.528 537.795 556.191 638.117 529.793 710.713C516.593 747.012 500.887 776.353 483.472 796.609C466.055 816.867 446.976 827.99 427.017 827.99C407.057 827.99 387.978 816.867 370.561 796.609C353.146 776.353 337.44 747.012 324.241 710.713C297.842 638.117 281.505 537.795 281.505 426.957Z" />
<path d="M281.941 438.384C273.245 327.888 281.661 226.593 302.282 152.15C312.593 114.927 325.948 84.4445 341.72 62.8842C357.494 41.3223 375.642 28.7372 395.539 27.1712C415.437 25.6052 435.331 35.1963 454.283 54.0254C473.233 72.8528 491.193 100.871 507.2 136.023C539.213 206.323 563.371 305.055 572.067 415.55C580.764 526.046 572.348 627.341 551.727 701.784C541.416 739.007 528.06 769.49 512.288 791.05C496.515 812.612 478.367 825.197 458.469 826.763C438.571 828.329 418.678 818.738 399.726 799.909C380.775 781.082 362.816 753.064 346.808 717.912C314.796 647.611 290.637 548.88 281.941 438.384Z" />
<path d="M283.274 449.74C265.935 340.267 266.377 238.624 281.094 162.793C288.453 124.875 299.375 93.4391 313.407 70.7079C327.44 47.9748 344.545 34.0046 364.258 30.8823C383.972 27.7599 404.557 35.7608 424.928 53.0448C445.297 70.3273 465.399 96.8497 484.115 130.638C521.545 198.21 553.375 294.741 570.714 404.214C588.053 513.687 587.61 615.33 572.894 691.161C565.535 729.079 554.612 760.515 540.58 783.247C526.547 805.98 509.443 819.95 489.729 823.072C470.015 826.194 449.431 818.194 429.06 800.91C408.691 783.627 388.588 757.105 369.872 723.317C332.443 655.745 300.612 559.213 283.274 449.74Z" />
<path d="M285.546 460.957C259.672 353.182 252.138 251.817 260.86 175.065C265.221 136.687 273.644 104.491 285.849 80.7286C298.055 56.9646 314.01 41.6955 333.418 37.036C352.826 32.3766 373.975 38.7377 395.639 54.3702C417.302 70.0013 439.423 94.8647 460.732 127.08C503.348 191.507 542.654 285.244 568.529 393.019C594.403 500.794 601.937 602.158 593.215 678.91C588.854 717.288 580.432 749.485 568.227 773.247C556.021 797.011 540.065 812.28 520.657 816.939C501.249 821.599 480.1 815.238 458.436 799.605C436.773 783.974 414.652 759.111 393.343 726.895C350.727 662.469 311.421 568.732 285.546 460.957Z" />
<path d="M288.639 471.966C254.388 366.553 238.925 266.092 241.598 188.892C242.934 150.29 248.805 117.532 259.108 92.8859C269.412 68.2375 284.12 51.7635 303.103 45.5957C322.085 39.4279 343.668 44.1101 366.492 57.9946C389.314 71.8779 413.318 94.9291 437.089 125.373C484.629 186.258 531.168 276.622 565.419 382.034C599.669 487.447 615.133 587.908 612.46 665.108C611.123 703.71 605.253 736.468 594.95 761.114C584.646 785.763 569.937 802.237 550.955 808.404C531.972 814.572 510.39 809.89 487.566 796.006C464.743 782.122 440.739 759.071 416.968 728.627C369.429 667.742 322.89 577.378 288.639 471.966Z" />
<path d="M292.586 482.698C250.17 380.297 226.872 281.359 223.48 204.188C221.784 165.6 225.066 132.482 233.403 107.104C241.742 81.7227 255.112 64.1456 273.552 56.5074C291.993 48.8692 313.876 51.8437 337.719 63.8946C361.56 75.9445 387.299 97.0413 413.385 125.526C465.555 182.494 519.041 268.927 561.456 371.328C603.872 473.728 627.17 572.666 630.562 649.838C632.258 688.426 628.976 721.543 620.639 746.922C612.3 772.303 598.93 789.88 580.49 797.518C562.049 805.157 540.166 802.182 516.323 790.131C492.482 778.081 466.743 756.984 440.657 728.499C388.487 671.532 335.001 585.098 292.586 482.698Z" />
<path d="M297.362 493.087C247.043 394.331 216.054 297.525 206.618 220.858C201.899 182.522 202.573 149.249 208.893 123.294C215.215 97.3376 227.165 78.7656 244.949 69.7042C262.733 60.6427 284.782 61.8911 309.497 72.0341C334.21 82.1763 361.525 101.189 389.766 127.539C446.244 180.238 506.347 262.209 556.666 360.966C606.985 459.722 637.974 556.528 647.41 633.195C652.129 671.531 651.455 704.804 645.134 730.759C638.813 756.715 626.863 775.287 609.079 784.349C591.295 793.41 569.246 792.162 544.531 782.019C519.817 771.877 492.503 752.864 464.262 726.514C407.784 673.815 347.681 591.844 297.362 493.087Z" />
<path d="M302.94 503.07C245.028 408.566 206.539 314.49 191.116 238.8C183.405 200.952 181.466 167.729 185.73 141.358C189.996 114.985 200.452 95.5329 217.47 85.1041C234.488 74.6753 256.568 74.1898 282.002 82.3625C307.435 90.5345 336.157 107.345 366.378 131.399C426.817 179.503 493.166 256.506 551.078 351.011C608.991 445.515 647.479 539.59 662.902 615.281C670.614 653.129 672.553 686.352 668.288 712.723C664.023 739.095 653.566 758.548 636.548 768.976C619.53 779.405 597.45 779.891 572.016 771.718C546.583 763.546 517.861 746.735 487.64 722.682C427.201 674.577 360.852 597.574 302.94 503.07Z" />
<path d="M309.282 512.585C244.133 422.915 198.382 332.15 177.068 257.902C166.411 220.776 161.871 187.808 164.054 161.184C166.237 134.558 175.135 114.345 191.282 102.613C207.43 90.8811 229.403 88.6648 255.4 94.8167C281.396 100.968 311.348 115.473 343.363 137.082C407.391 180.296 479.576 251.856 544.725 341.525C609.873 431.195 655.624 521.96 676.938 596.207C687.596 633.333 692.135 666.302 689.952 692.926C687.77 719.552 678.872 739.765 662.724 751.497C646.577 763.229 624.604 765.445 598.606 759.293C572.611 753.142 542.658 738.636 510.643 717.028C446.616 673.814 374.43 602.254 309.282 512.585Z" />
<path d="M316.351 521.572C244.368 437.291 191.637 350.395 164.563 278.048C151.026 241.873 143.913 209.362 144 182.649C144.088 155.934 151.372 135.085 166.549 122.123C181.727 109.16 203.458 105.227 229.858 109.32C256.256 113.413 287.254 125.523 320.866 144.553C388.086 182.611 465.664 248.286 537.647 332.568C609.63 416.849 662.362 503.745 689.435 576.091C702.973 612.267 710.085 644.777 709.998 671.491C709.911 698.206 702.626 719.055 687.449 732.017C672.272 744.98 650.54 748.913 624.14 744.82C597.742 740.727 566.744 728.617 533.132 709.587C465.912 671.529 388.334 605.854 316.351 521.572Z" />
<path d="M324.103 529.977C245.729 451.603 186.342 369.112 153.676 299.113C137.342 264.111 127.701 232.259 125.692 205.621C123.682 178.981 129.309 157.625 143.422 143.512C157.536 129.398 178.891 123.772 205.531 125.781C232.169 127.79 264.022 137.432 299.023 153.766C369.022 186.432 451.513 245.818 529.887 324.192C608.261 402.566 667.648 485.057 700.314 555.056C716.648 590.058 726.289 621.91 728.298 648.548C730.307 675.188 724.681 696.544 710.568 710.657C696.454 724.77 675.098 730.397 648.458 728.388C621.821 726.379 589.968 716.737 554.967 700.403C484.968 667.737 402.476 608.351 324.103 529.977Z" />
<path d="M332.489 537.747C248.208 465.764 182.532 388.186 144.474 320.966C125.445 287.354 113.334 256.356 109.241 229.958C105.148 203.558 109.081 181.826 122.044 166.649C135.007 151.472 155.855 144.187 182.571 144.1C209.284 144.013 241.795 151.125 277.97 164.663C350.316 191.736 437.212 244.468 521.494 316.451C605.775 388.434 671.451 466.011 709.508 533.231C728.538 566.844 740.649 597.842 744.742 624.239C748.835 650.639 744.901 672.371 731.939 687.548C718.976 702.726 698.128 710.01 671.412 710.097C644.699 710.184 612.188 703.072 576.013 689.534C503.667 662.461 416.771 609.73 332.489 537.747Z" />
<path d="M341.461 544.837C251.792 479.688 180.232 407.503 137.018 343.476C115.409 311.46 100.904 281.508 94.7524 255.513C88.6005 229.515 90.8168 207.542 102.549 191.395C114.281 175.247 134.493 166.349 161.119 164.166C187.743 161.983 220.712 166.523 257.838 177.181C332.085 198.494 422.851 244.245 512.52 309.394C602.19 374.542 673.749 446.728 716.964 510.755C738.572 542.77 753.077 572.722 759.229 598.718C765.381 624.715 763.164 646.688 751.433 662.836C739.701 678.984 719.488 687.881 692.862 690.064C666.238 692.247 633.269 687.707 596.143 677.05C521.896 655.736 431.13 609.985 341.461 544.837Z" />
<path d="M350.962 551.199C256.458 493.287 179.455 426.939 131.35 366.499C107.297 336.278 90.4862 307.556 82.3142 282.124C74.1415 256.689 74.627 234.61 85.0557 217.591C95.4845 200.573 114.937 190.117 141.31 185.852C167.68 181.587 200.904 183.526 238.751 191.237C314.442 206.66 408.517 245.149 503.022 303.061C597.526 360.973 674.529 427.322 722.634 487.761C746.687 517.982 763.498 546.704 771.67 572.137C779.843 597.571 779.357 619.651 768.928 636.669C758.5 653.687 739.047 664.143 712.674 668.409C686.304 672.673 653.08 670.735 615.233 663.023C539.542 647.6 445.467 609.112 350.962 551.199Z" />
<path d="M360.933 556.797C262.176 506.478 180.205 446.376 127.507 389.897C101.156 361.657 82.1438 334.342 72.0015 309.629C61.8584 284.914 60.6101 262.865 69.6715 245.081C78.7329 227.297 97.3049 215.346 123.262 209.025C149.216 202.704 182.489 202.031 220.825 206.749C297.493 216.186 394.298 247.174 493.055 297.494C591.812 347.813 673.783 407.915 726.481 464.394C752.832 492.634 771.844 519.949 781.986 544.662C792.129 569.377 793.378 591.426 784.316 609.21C775.255 626.994 756.683 638.945 730.726 645.266C704.771 651.587 671.498 652.26 633.163 647.542C556.495 638.105 459.69 607.117 360.933 556.797Z" />
<path d="M371.31 561.596C268.91 519.18 182.476 465.695 125.509 413.525C97.0235 387.438 75.9267 361.7 63.8768 337.859C51.8259 314.016 48.8514 292.132 56.4896 273.692C64.1277 255.252 81.7049 241.881 107.086 233.543C132.465 225.205 165.582 221.923 204.17 223.619C281.342 227.012 380.28 250.31 482.68 292.725C585.08 335.141 671.514 388.626 728.482 440.796C756.967 466.883 778.064 492.621 790.113 516.462C802.164 540.305 805.139 562.189 797.501 580.629C789.863 599.069 772.285 612.44 746.905 620.778C721.526 629.116 688.408 632.398 649.82 630.702C572.649 627.309 473.711 604.011 371.31 561.596Z" />
<path d="M382.034 565.565C276.622 531.314 186.258 484.775 125.373 437.236C94.929 413.465 71.8779 389.461 57.9945 366.639C44.11 343.815 39.4278 322.232 45.5956 303.249C51.7634 284.267 68.2373 269.558 92.8857 259.254C117.532 248.951 150.29 243.081 188.892 241.744C266.092 239.071 366.553 254.535 471.966 288.785C577.378 323.036 667.742 369.575 728.627 417.114C759.071 440.886 782.122 464.889 796.006 487.712C809.89 510.536 814.572 532.118 808.404 551.101C802.237 570.083 785.763 584.792 761.114 595.096C736.468 605.399 703.71 611.269 665.108 612.606C587.908 615.279 487.447 599.816 382.034 565.565Z" />
<path d="M393.036 568.681C285.261 542.806 191.524 503.5 127.097 460.884C94.8821 439.575 70.0187 417.454 54.3875 395.791C38.7551 374.127 32.394 352.978 37.0534 333.57C41.7128 314.162 56.9819 298.207 80.7459 286.001C104.508 273.796 136.704 265.373 175.083 261.012C251.835 252.29 353.199 259.824 460.974 285.698C568.749 311.573 662.486 350.879 726.913 393.494C759.128 414.804 783.992 436.925 799.623 458.588C815.255 480.252 821.616 501.4 816.957 520.808C812.297 540.216 797.028 556.172 773.264 568.378C749.502 580.583 717.306 589.006 678.928 593.367C602.176 602.089 500.811 594.555 393.036 568.681Z" />
<path d="M404.247 570.924C294.775 553.586 198.243 521.755 130.671 484.326C96.883 465.61 70.3606 445.508 53.078 425.138C35.794 404.767 27.7932 384.183 30.9155 364.469C34.0379 344.755 48.008 327.651 70.7411 313.618C93.4723 299.586 124.909 288.663 162.826 281.304C238.657 266.588 340.301 266.145 449.773 283.484C559.246 300.823 655.778 332.653 723.35 370.083C757.138 388.798 783.66 408.901 800.943 429.27C818.227 449.641 826.228 470.226 823.105 489.939C819.983 509.653 806.013 526.758 783.28 540.791C760.549 554.822 729.112 565.745 691.195 573.104C615.363 587.821 513.72 588.263 404.247 570.924Z" />
<path d="M415.602 572.28C305.107 563.584 206.375 539.426 136.075 507.413C100.923 491.406 72.9048 473.446 54.0773 454.496C35.2483 435.543 25.6571 415.65 27.2231 395.752C28.7891 375.854 41.3742 357.707 62.9361 341.933C84.4963 326.161 114.979 312.806 152.202 302.495C226.645 281.873 327.94 273.457 438.436 282.154C548.932 290.85 647.663 315.008 717.963 347.021C753.116 363.028 781.133 380.987 799.961 399.938C818.79 418.89 828.381 438.783 826.815 458.681C825.249 478.579 812.664 496.727 791.102 512.5C769.542 528.273 739.06 541.628 701.836 551.939C627.393 572.56 526.098 580.976 415.602 572.28Z" />
<path d="M427.027 572.741C316.19 572.741 215.867 556.404 143.272 530.005C106.972 516.806 77.6317 501.1 57.3754 483.685C37.1175 466.268 25.9951 447.189 25.995 427.23C25.995 407.27 37.1175 388.191 57.3754 370.774C77.6317 353.359 106.972 337.653 143.272 324.454C215.867 298.055 316.19 281.718 427.027 281.718C537.865 281.718 638.187 298.055 710.783 324.453C747.082 337.653 776.423 353.359 796.679 370.774C816.937 388.19 828.06 407.27 828.06 427.229C828.06 447.189 816.937 466.268 796.679 483.684C776.423 501.1 747.082 516.805 710.783 530.005C638.187 556.404 537.865 572.741 427.027 572.741Z" />
</svg>
