<svg >
  <clipPath
    id="puzzle-fact-inner-9"
    clipPathUnits="objectBoundingBox"
    transform="scale(0.0018691588785047 0.0029154518950437)"
  >
    <path d="M2.63328 168.5C5.1235 191.88 12.5858 212.684 27.252 223.174C41.7177 233.52 64.0202 234.357 97.5947 215.855C100.166 214.438 103.619 216.159 103.619 219.34L103.619 270.926L216.211 277.062C219.889 277.262 221.217 281.773 218.675 284.103C207.443 294.396 200.832 303.063 198.404 310.171C197.206 313.681 197.055 316.727 197.786 319.392C198.517 322.052 200.179 324.522 202.935 326.794C208.528 331.405 218.389 335.003 232.849 337.415C247.238 339.816 265.899 341 288.828 341C311.84 341 332.163 340.057 348.789 337.947C365.471 335.829 378.216 332.559 386.224 328.033C390.211 325.78 392.876 323.296 394.334 320.632C395.761 318.024 396.125 315.074 395.201 311.622C393.297 304.507 385.955 295.399 371.39 284.077C368.675 281.966 369.581 277.201 373.392 276.819L431.288 271.01L431.288 192.796C431.288 190.009 434.04 188.24 436.509 188.975C482.478 202.652 506.347 198.516 518.768 188.268C531.226 177.988 533 160.918 533 146.402C533 132.226 528.21 108.896 513.875 93.1326C506.752 85.2999 497.268 79.3249 484.764 77.2216C472.232 75.1136 456.506 76.8688 436.892 84.7926C434.369 85.812 431.288 84.0769 431.288 81.0972L431.288 8.61974L331.229 2.45884C331.217 2.47612 331.2 2.50484 331.185 2.54812C331.157 2.63207 331.158 2.71074 331.171 2.75985C331.176 2.78138 331.182 2.7945 331.188 2.80256C331.192 2.8095 331.201 2.822 331.223 2.83937C341.474 10.9158 346.481 19.0916 346.489 27.0254C346.497 34.993 341.468 41.9402 333.479 47.5515C317.531 58.7536 288.418 65.6734 255.661 65.6734C222.646 65.6734 192.338 60.0431 174.347 49.5224C165.345 44.2584 159.101 37.5721 157.517 29.4465C155.925 21.2728 159.171 12.3063 167.641 2.79713C167.658 2.77846 167.665 2.76575 167.668 2.7588C167.671 2.75102 167.674 2.7405 167.676 2.72531C167.68 2.69074 167.674 2.63786 167.649 2.58379C167.636 2.55552 167.622 2.53756 167.613 2.52724L103.619 8.55949L103.619 108.849C103.619 111.843 100.497 113.664 97.9026 112.494C67.7957 98.9123 42.3893 98.3337 25.4445 108.148C8.62655 117.889 -0.581581 138.316 2.63328 168.5Z"/>
  </clipPath>
</svg>
