<svg>
  <clipPath
    id="puzzle-second-screen"
    clipPathUnits="objectBoundingBox"
    transform="scale(0.003448275862069 0.0013908205841446)"
  >
    <path d="M210.983 55.8599C233.988 55.8599 268.496 47.0878 269.996 27.6478C271.022 14.353 255.441 6.31152 245.488 2.55604C244.38 2.13802 244.71 0 245.894 0H284.999L289.943 328.212C289.958 329.239 288.543 329.663 287.975 328.808C283.229 321.662 270.887 305 258.993 305C243.853 305 235.988 340.5 235.988 364.5C235.988 388.5 243.99 421.066 258.493 426.5C269.934 430.786 282.931 412.13 287.91 404.061C288.461 403.168 289.932 403.591 289.909 404.64L282.998 719H128.765C127.68 719 127.277 717.33 128.212 716.781C133.797 713.506 142.708 706.854 140.968 698.505C138.467 686.505 106.961 684.5 89.4568 684.5C71.953 684.5 45.9689 689.005 43.9685 698.505C42.6834 704.608 49.2322 711.328 54.0801 715.353C54.9512 716.077 54.1436 717.777 53.0463 717.498L0 704V221.152C0 220.176 1.28438 219.78 1.87856 220.554C25.0628 250.756 44.5017 227.335 47.448 209.587C50.4735 191.362 50.1986 167.67 43.4471 151.267C37.1619 135.998 14.4606 125.104 2.47843 155.532C2.04815 156.624 0.122889 156.323 0.144499 155.149L3 0H180.96C182.03 0 182.416 1.55305 181.478 2.07004C173.522 6.45789 156.472 17.3289 156.472 29.9048C156.472 46.3073 187.978 55.8599 210.983 55.8599Z" />
  </clipPath>
</svg>