<svg >
  <clipPath
    id="puzzle-fact-inner-6"
    clipPathUnits="objectBoundingBox"
    transform="scale(0.0022988505747126 0.0023364485981308)"
  >
    <path d="M221.171 2.51111C206.422 3.50201 192.348 5.4809 180.253 8.7012C168.128 11.9297 158.158 16.3634 151.47 22.1579C144.861 27.8842 141.474 34.9055 142.295 43.6074C143.129 52.4571 148.341 63.3379 159.689 76.5584C161.819 79.0395 160.305 83.2954 156.684 83.2954H90.8387L83.0486 173.47C82.7737 176.651 79.1483 178.1 76.694 176.383C63.4442 167.116 52.1497 161.495 42.7067 159.315C33.3193 157.148 25.899 158.402 20.0924 162.706C14.2111 167.066 9.65692 174.795 6.58737 186.253C3.52356 197.689 1.99997 212.616 1.99997 231.062C1.99997 249.567 3.21069 265.855 5.90991 279.12C8.61798 292.429 12.7795 302.466 18.5039 308.698C24.1064 314.797 31.3188 317.385 40.7208 315.627C50.2847 313.838 62.1612 307.531 76.6955 295.538C78.9851 293.649 82.7775 294.745 83.2879 297.954L90.7111 344.631H190.726C193.806 344.631 195.512 347.89 194.331 350.426C185.907 368.509 183.065 382.166 183.896 392.455C184.718 402.643 189.149 409.649 195.641 414.556C202.212 419.523 210.996 422.409 220.548 424.036C230.08 425.659 240.203 426 249.329 426C267.442 426 297.124 422.164 317.3 410.719C327.36 405.013 334.806 397.561 337.516 387.992C340.218 378.453 338.351 366.315 328.715 350.914C327.137 348.393 328.707 344.631 332.077 344.631H424.639L432.485 264.252C432.485 264.25 432.485 264.249 432.485 264.248C432.477 264.24 432.462 264.227 432.437 264.215C432.393 264.193 432.352 264.188 432.33 264.19C432.32 264.191 432.314 264.193 432.31 264.195C432.306 264.196 432.295 264.201 432.277 264.216C421.823 273.049 411.508 277.265 401.843 277.573C392.16 277.881 383.366 274.258 376.001 267.853C361.344 255.107 352.248 231.306 352.248 204.529C352.248 177.683 359.584 152.971 373.329 138.487C380.238 131.206 388.788 126.498 398.788 125.5C408.768 124.504 419.98 127.224 432.206 134.404C432.223 134.413 432.233 134.417 432.238 134.418C432.243 134.419 432.25 134.42 432.259 134.419C432.279 134.419 432.309 134.411 432.339 134.392C432.35 134.385 432.357 134.378 432.363 134.373L424.73 83.2954H296.951C293.567 83.2954 291.873 79.4624 293.679 76.8828C301.972 65.0389 306.176 54.2008 306.796 44.7517C307.411 35.3628 304.5 27.2369 298.323 20.6442C285.837 7.31722 259.643 -0.0736945 221.171 2.51111Z"/>
  </clipPath>
</svg>