<svg >
  <clipPath
    id="puzzle-fact-outer-2"
    clipPathUnits="objectBoundingBox"
    transform="scale(0.0022988505747126 0.0037593984962406)"
  >
    <path d="M258.237 266C256.688 266 255.762 264.248 256.522 262.898C295.451 193.864 235.251 183.244 189.314 183.244C143.411 183.244 74.2063 193.848 121.026 262.743C121.94 264.088 121.037 266 119.411 266H0V5.72205e-06H353.306L348.298 52.9173C348.135 54.6332 350.128 55.7187 351.554 54.7513C408.978 15.8062 435 68.1415 435 112.902C435 157.795 413.769 222.854 351.308 185.379C349.899 184.533 348.032 185.569 348.139 187.209L353.306 266H258.237Z"/>
  </clipPath>
</svg>
