<svg>
  <clipPath
    id="puzzle-outer-6"
    clipPathUnits="objectBoundingBox"
    transform="scale(0.0013550135501355 0.0013774104683196)"
  >
    <path d="M363 0.874605C463.887 7.65166 547.873 41.6057 469.08 132.739C467.376 134.71 468.683 137.898 471.288 137.898H587L600.544 294.649C600.745 296.972 603.464 298.149 605.372 296.809C696.334 232.939 738 265.922 738 391.942C738 518.217 704.922 586.108 605.18 503.479C603.375 501.984 600.527 502.934 600.159 505.249L587 587.976H413.795C411.579 587.976 410.176 590.403 411.116 592.409C469.331 716.718 377.268 726 315 726C252.926 726 110.274 699.783 177.835 592.817C179.119 590.784 177.757 587.976 175.353 587.976H14.5L0.787205 447.514C0.516674 444.743 3.90475 443.102 6.01803 444.915C75.5818 504.587 137 436.865 137 346.934C137 256.511 87.3258 182.808 5.71696 231.347C3.49191 232.671 0.605127 230.866 0.987807 228.306L14.5 137.898H234.994C237.467 137.898 238.854 135.017 237.427 132.996C179.533 51.019 231.605 -7.95187 363 0.874605Z"/>
  </clipPath>
</svg>