<svg >
  <clipPath
    id="puzzle-footer-inner-6-sr"
    clipPathUnits="objectBoundingBox"
    transform="scale(0.003448275862069 0.0106382978723404)"
  >
    <path d="m 200.5,0 c -12.21586,1.3564801e-5 -26.02597,0.95176659 -33.29883,4.9863281 -1.81821,1.0086404 -3.25768,2.2360411 -4.08789,3.7871094 -0.8302,1.5510685 -0.97527,3.4073365 -0.33594,5.3515625 1.27868,3.888453 5.40837,8.292314 13.34571,13.808594 0.0506,0.03517 0.0227,0.019 0.0117,0.05664 -0.011,0.03764 0.058,0.0098 0.004,0.0098 H 0 V 94 H 290 V 28 h -63.10547 c -0.0564,0 0.003,0.01927 -0.01,-0.02344 -0.0128,-0.0427 -0.0386,-0.025 0.0117,-0.06055 6.67195,-4.718342 10.07274,-8.776243 10.86914,-12.53711 0.39821,-1.880433 0.0795,-3.675773 -0.80859,-5.214843 C 236.06898,8.6249922 234.6537,7.3316353 232.87891,6.2226562 225.77972,1.7867399 212.69922,-1.4119471e-5 200.5,0 Z m 0,2 c 11.99278,-1.39e-5 24.97805,1.9581872 31.31836,5.9199219 1.58508,0.9904336 2.73923,2.0881511 3.40625,3.2441411 0.66701,1.155989 0.88862,2.360236 0.58398,3.798828 -0.60927,2.877182 -3.58235,6.734843 -10.0664,11.320312 -0.76357,0.540344 -1.00272,1.506227 -0.77344,2.269531 C 225.19817,29.316505 225.95295,30 226.89453,30 H 288 V 92 H 2 V 30 h 174.13867 c 0.93989,0 1.69566,-0.688539 1.91797,-1.453125 0.22231,-0.764586 -0.0266,-1.723529 -0.79297,-2.255859 -7.7852,-5.410749 -11.58092,-9.734774 -12.58594,-12.791016 -0.50253,-1.528214 -0.37995,-2.701141 0.19922,-3.7832031 0.57917,-1.0820625 1.69164,-2.093013 3.29492,-2.9824219 C 174.58501,3.1767393 188.40086,2.0000134 200.5,2 Z" />
  </clipPath>
</svg>