<svg >
  <clipPath
    id="puzzle-fact-inner-8"
    clipPathUnits="objectBoundingBox"
    transform="scale(0.002710027100271 0.0023364485981308)"
  >
    <path d="M194.043 2C169.175 2 150.06 3.8411 136.034 7.30333C121.957 10.7781 113.321 15.8084 108.979 21.9185C104.728 27.8992 104.304 35.3414 107.693 44.4689C111.101 53.65 118.292 64.2831 128.853 76.2218C131.085 78.7448 129.43 82.9491 125.871 82.9491H2V343.873H73.5587C76.7195 343.873 78.4512 347.288 77.0676 349.863C69.1257 364.644 65.5582 376.723 65.4754 386.486C65.3932 396.165 68.7297 403.644 74.8256 409.4C80.9857 415.217 90.0894 419.388 101.691 422.094C113.275 424.795 127.196 426 142.828 426C158.435 426 173.494 424.782 186.662 422.054C199.855 419.32 211.009 415.1 218.923 409.191C226.778 403.326 231.404 395.84 231.791 386.379C232.182 376.812 228.252 364.902 218.23 350.262C216.493 347.723 218.099 343.873 221.505 343.873H356.649L366.304 289.014C366.303 289.014 366.303 289.013 366.302 289.013C366.275 288.994 366.244 288.984 366.22 288.982C366.209 288.981 366.201 288.982 366.194 288.983C366.188 288.984 366.178 288.987 366.162 288.995C348.111 298.209 334.08 300.752 323.176 298.479C312.18 296.187 304.751 289.082 299.781 279.916C294.838 270.8 292.257 259.539 290.898 248.577C289.536 237.591 289.383 226.752 289.383 218.415C289.383 201.615 293.77 179.13 305.61 164.489C311.577 157.11 319.479 151.679 329.653 150.076C339.795 148.477 351.94 150.722 366.352 158.191C366.367 158.198 366.377 158.201 366.382 158.202C366.385 158.203 366.388 158.203 366.391 158.203C366.395 158.204 366.4 158.204 366.405 158.203C366.426 158.202 366.455 158.193 366.48 158.176C366.484 158.173 366.488 158.171 366.491 158.168L356.574 82.9491H263.208C259.877 82.9491 258.1 79.1733 259.96 76.5684C268.321 64.8631 274.399 54.3234 277.348 45.1257C280.29 35.9508 280.041 28.3843 276.173 22.2939C272.263 16.1356 264.365 11.0187 250.936 7.46246C237.538 3.91451 218.93 2 194.043 2Z"/>
  </clipPath>
</svg>