<svg>
  <clipPath
    id="puzzle-second-screen"
    clipPathUnits="objectBoundingBox"
    transform="scale(8.340283569641368e-4 8.873114463176575e-4)"
  >
    <path d="M820 217.375C898 224.316 1031.42 216.429 1045 134.429C1054.85 74.9722 1000.05 22.5767 980.073 5.68818C977.862 3.81931 979.224 0 982.12 0H1145.52L1198.82 539.102C1199.12 542.211 1194.91 543.814 1193.05 541.302C1177.92 520.833 1139.73 473.316 1095 449.051C1037 417.589 944.997 467.165 944.997 632.103C944.997 797.041 1038.99 904.775 1119.5 855.199C1159.99 830.262 1180.11 808.22 1190.12 792.47C1192.04 789.446 1194.86 790.462 1194.07 793.957L1119.5 1127H481.843C479.115 1127 477.631 1123.51 479.426 1121.46C489.989 1109.37 512.859 1078.22 512.859 1035.11C512.859 941.958 404.499 908.112 328.499 908.112C252.499 908.112 139.51 938.624 130.5 1015.37C125.037 1061.89 164.399 1099.86 186.189 1117.06C188.825 1119.14 186.596 1124.19 183.309 1123.5L0 1085.03V538.796C0 535.808 3.98953 534.723 5.67239 537.192C92.8401 665.057 158.236 611.119 183.999 544.391C210.318 476.223 217.999 377.546 183.999 296.984C151.308 219.522 57.9068 244.645 6.02342 284.002C3.844 285.655 0.661745 283.861 1.02576 281.15L38.7744 0H719.535C722.575 0 723.948 4.34112 721.542 6.19961C704.146 19.6372 667 54.6562 667 108.687C667 179.239 742 210.434 820 217.375Z" />
  </clipPath>
</svg>
