<svg >
  <clipPath
    id="puzzle-fact-inner-3"
    clipPathUnits="objectBoundingBox"
    transform="scale(0.0022988505747126 0.0023364485981308)"
  >
    <path d="M213.829 2.51111C228.578 3.50201 242.652 5.4809 254.747 8.7012C266.872 11.9297 276.842 16.3634 283.53 22.1579C290.139 27.8842 293.526 34.9055 292.705 43.6074C291.871 52.4571 286.659 63.3379 275.311 76.5584C273.181 79.0395 274.695 83.2954 278.316 83.2954H344.161L351.951 173.47C352.226 176.651 355.852 178.1 358.306 176.383C371.556 167.116 382.85 161.495 392.293 159.315C401.681 157.148 409.101 158.402 414.908 162.706C420.789 167.066 425.343 174.795 428.413 186.253C431.476 197.689 433 212.616 433 231.062C433 249.567 431.789 265.855 429.09 279.12C426.382 292.429 422.22 302.466 416.496 308.698C410.894 314.797 403.681 317.385 394.279 315.627C384.715 313.838 372.839 307.531 358.304 295.538C356.015 293.649 352.222 294.745 351.712 297.954L344.289 344.631H244.274C241.194 344.631 239.488 347.89 240.669 350.426C249.093 368.509 251.935 382.166 251.104 392.455C250.282 402.643 245.851 409.649 239.359 414.556C232.788 419.523 224.004 422.409 214.452 424.036C204.92 425.659 194.797 426 185.671 426C167.558 426 137.876 422.164 117.7 410.719C107.64 405.013 100.194 397.561 97.4837 387.992C94.7823 378.453 96.6488 366.315 106.285 350.914C107.863 348.393 106.293 344.631 102.923 344.631H10.361L2.51531 264.252C2.51516 264.25 2.51504 264.249 2.51494 264.248C2.52302 264.24 2.53821 264.227 2.56327 264.215C2.60722 264.193 2.64763 264.188 2.67029 264.19C2.67983 264.191 2.68582 264.193 2.69023 264.195C2.69389 264.196 2.70467 264.201 2.72264 264.216C13.1774 273.049 23.4921 277.265 33.1572 277.573C42.8395 277.881 51.6343 274.258 58.9992 267.853C73.6562 255.107 82.752 231.306 82.752 204.529C82.752 177.683 75.4158 152.971 61.6713 138.487C54.762 131.206 46.2119 126.498 36.2119 125.5C26.2317 124.504 15.0205 127.224 2.79422 134.404C2.77729 134.413 2.76688 134.417 2.76204 134.418C2.75659 134.419 2.75012 134.42 2.74143 134.419C2.72127 134.419 2.6907 134.411 2.66077 134.392C2.6501 134.385 2.64252 134.378 2.63735 134.373L10.2701 83.2954H138.049C141.433 83.2954 143.127 79.4624 141.321 76.8828C133.028 65.0389 128.824 54.2008 128.204 44.7517C127.589 35.3628 130.5 27.2369 136.677 20.6442C149.163 7.31722 175.357 -0.0736945 213.829 2.51111Z"/>
  </clipPath>
</svg>