<svg >
  <clipPath
    id="puzzle-footer-outer-5"
    clipPathUnits="objectBoundingBox"
    transform="scale(0.0011210762331839 0.0061349693251534)"
  >
    <path d="m 0,2 c 0,53.666667 0,107.33333 0,161 297.33333,0 594.66667,0 892,0 -0.0117,-9.78753 0.0235,-19.57687 -0.0176,-29.36328 -0.12879,-1.9754 -2.48618,-3.26971 -4.24609,-2.41797 -1.90083,1.15695 -3.71859,2.46806 -5.66339,3.56352 -5.66234,3.2891 -11.86665,6.0774 -18.48796,6.47794 -4.78568,0.32204 -9.6864,-1.11783 -13.42287,-4.15279 -4.87833,-3.90161 -7.95381,-9.56541 -10.18956,-15.29543 -2.64726,-6.88143 -4.15488,-14.28481 -5.11122,-21.49168 -1.2823,-10.037578 -1.55825,-20.162215 -0.82599,-30.292745 0.14266,-1.895393 0.33426,-3.993965 0.55756,-5.884282 1.08206,-8.989797 2.91691,-18.022505 6.81086,-26.252426 2.55898,-5.301184 6.20895,-10.40138 11.51778,-13.214535 4.85229,-2.638024 10.67983,-2.776019 15.95898,-1.520499 2.37071,0.53484 4.86512,1.398607 6.98471,2.287536 4.13659,1.721366 8.02357,3.976857 11.79688,6.376953 1.71961,0.862577 4.05607,-0.299036 4.302,-2.232589 0.0838,-4.619056 0.0119,-9.246361 0.0359,-13.868582 C 892,10.479427 892,5.2397135 892,0 792.67585,0.00390631 693.35112,-0.00781259 594.02734,0.00585938 c -1.95574,0.02933783 -3.33523,2.25574012 -2.64813,4.04727442 0.60295,1.3044264 1.64556,2.3562016 2.39255,3.5815805 3.83405,5.6929807 7.32539,11.8423857 8.65172,18.6509107 0.90163,4.55074 0.38474,9.517541 -2.17789,13.467986 -3.07869,4.82538 -8.15677,7.917216 -13.29058,10.169914 -8.19722,3.503725 -17.01853,5.233653 -25.80462,6.490752 -10.1529,1.389817 -20.40682,2.002341 -30.56303,2.301227 -12.89473,0.377735 -25.79732,0.287161 -38.69587,0.247945 -6.33295,-0.04797 -12.55797,-0.17481 -18.86571,-0.437068 -6.02416,-0.263398 -12.00997,-0.656681 -18.0351,-1.290672 -1.62088,-0.175431 -3.11074,-0.348738 -4.73287,-0.552115 -1.36076,-0.185791 -2.9576,-0.401657 -4.40366,-0.628634 -0.86449,-0.126716 -1.84483,-0.300078 -2.78579,-0.451444 -0.97821,-0.184098 -2.22971,-0.391981 -3.30682,-0.617664 -7.956,-1.609453 -15.93922,-3.795784 -23.00412,-7.902258 -4.91855,-2.859745 -9.38409,-7.002759 -11.36822,-12.454877 -2.12307,-5.703729 -1.36613,-12.030428 0.45083,-17.706803 1.39845,-4.454859 3.48667,-8.6533231 5.74395,-12.7266015 0.77777,-1.7707356 -0.52442,-4.06449122 -2.48437,-4.18164062 C 382.1074,-0.01823083 355.11326,0.00911583 328.12031,0 218.74688,0 109.37344,0 0,0 0,0.66666667 0,1.3333333 0,2 Z" />
  </clipPath>
</svg>