<svg >
  <clipPath
    id="puzzle-fact-outer-9"
    clipPathUnits="objectBoundingBox"
    transform="scale(0.0018691588785047 0.0029154518950437)"
  >
    <path d="M0.644532 168.711C5.65702 215.773 30.8442 254.922 98.5599 217.607C99.9065 216.865 101.619 217.803 101.619 219.34L101.619 272.82L216.102 279.059C217.894 279.156 218.647 281.415 217.323 282.628C172.152 324.023 196.897 343 288.828 343C381.055 343 431.019 327.898 372.618 282.498C371.173 281.374 371.77 278.991 373.591 278.809L433.288 272.82L433.288 192.796C433.288 191.451 434.65 190.508 435.939 190.892C528.129 218.322 535 175.407 535 146.402C535 117.466 515.564 50.853 436.143 82.9382C434.814 83.4753 433.288 82.5312 433.288 81.0972L433.288 6.7391L331.334 0.461541C329.288 0.335586 328.375 3.14193 329.985 4.41033C370.17 36.0717 320.828 63.6734 255.661 63.6734C189.892 63.6734 136.127 41.1822 169.135 4.12744C170.393 2.71521 169.312 0.358195 167.429 0.535688L101.619 6.73915L101.619 108.849C101.619 110.317 100.064 111.275 98.7251 110.671C37.9415 83.2506 -5.88558 107.401 0.644532 168.711Z"/>
  </clipPath>
</svg>