<svg >
  <clipPath
    id="puzzle-fact-outer-4"
    clipPathUnits="objectBoundingBox"
    transform="scale(0.0022988505747126 0.0037735849056604)"
  >
    <path d="M258.244 0C256.693 0 255.767 1.75513 256.531 3.10471C295.442 71.8668 235.248 82.4444 189.314 82.4444C143.414 82.4444 74.2166 71.8827 121.015 3.26037C121.933 1.91543 121.031 0 119.403 0H0V265H353.306L348.298 212.29C348.136 210.575 350.125 209.489 351.552 210.453C408.977 249.255 435 197.115 435 152.522C435 107.798 413.768 42.982 351.306 80.3199C349.896 81.1622 348.032 80.1257 348.14 78.4876L353.306 0H258.244Z"/>
  </clipPath>
</svg>