<svg >
  <clipPath
    id="puzzle-fact-inner-1"
    clipPathUnits="objectBoundingBox"
    transform="scale(0.0022988505747126 0.0036764705882353)"
  >
    <path d="M245.686 185.378C234.13 185.378 221.616 186.06 209.953 188.213C198.314 190.362 187.367 194.003 179.063 200.026C170.689 206.101 165.028 214.591 164.099 226.202C163.179 237.707 166.923 252.042 176.775 269.883C176.781 269.894 176.784 269.902 176.785 269.908C176.787 269.914 176.788 269.921 176.788 269.931C176.787 269.952 176.781 269.977 176.769 269.999C176.768 270 176.768 270 176.768 270H83.8268L88.8595 191.514C89.0804 188.07 85.2639 186.25 82.6295 187.865C67.2624 197.29 54.7008 200.1 44.5439 198.622C34.4219 197.149 26.3466 191.367 20.0229 182.889C7.28571 165.812 2 138.22 2 115.449C2 92.812 8.45581 68.6065 21.6218 55.0152C28.1438 48.2825 36.289 44.1669 46.1989 44.0402C56.162 43.9129 68.1501 47.8157 82.291 57.6193C84.9677 59.475 89.0302 57.5615 88.6982 53.9743L83.888 2H433V270H315.578C315.565 269.974 315.559 269.944 315.56 269.921C315.561 269.911 315.562 269.903 315.564 269.896C315.566 269.89 315.57 269.881 315.578 269.869C327.421 252.075 332.153 237.735 331.511 226.178C330.86 214.489 324.735 205.996 315.738 199.959C306.811 193.97 295.001 190.345 282.663 188.205C270.296 186.059 257.235 185.378 245.686 185.378Z"/>
  </clipPath>
</svg>
