<svg >
  <clipPath
    id="puzzle-fact-inner-2"
    clipPathUnits="objectBoundingBox"
    transform="scale(0.0022988505747126 0.0037593984962406)"
  >
    <path d="M189.314 181.244C200.864 181.244 213.369 181.911 225.025 184.014C236.655 186.113 247.596 189.669 255.899 195.551C264.273 201.484 269.954 209.789 270.897 221.163C271.831 232.428 268.094 246.449 258.265 263.881C258.258 263.892 258.255 263.9 258.254 263.906C258.252 263.912 258.251 263.92 258.251 263.929C258.252 263.95 258.258 263.976 258.27 263.999C258.271 263.999 258.271 264 258.271 264H351.17L346.144 187.339C345.919 183.915 349.697 182.08 352.337 183.664C367.708 192.886 380.281 195.642 390.454 194.197C400.592 192.757 408.668 187.097 414.987 178.815C427.716 162.13 433 135.162 433 112.902C433 90.7783 426.548 67.1247 413.39 53.8447C406.871 47.2652 398.721 43.2347 388.794 43.1128C378.816 42.9902 366.819 46.8149 352.677 56.4065C349.991 58.228 345.969 56.2958 346.307 52.7288L351.107 2H2V264H119.373C119.386 263.973 119.392 263.943 119.39 263.92C119.39 263.909 119.388 263.901 119.386 263.895C119.384 263.889 119.38 263.88 119.372 263.867C107.558 246.483 102.834 232.458 103.492 221.14C104.158 209.685 110.309 201.379 119.303 195.485C128.229 189.636 140.03 186.096 152.36 184.006C164.719 181.91 177.772 181.244 189.314 181.244Z"/>
  </clipPath>
</svg>
