<svg>
  <clipPath
    id="puzzle-inner-5"
    clipPathUnits="objectBoundingBox"
    transform="scale(0.0017241379310345 0.0013755158184319)"
  >
    <path d="M275 3C314.206 3 344.308 6.14646 366.365 12.0607C388.475 17.9891 402.065 26.5792 408.89 37.107C415.629 47.5038 416.183 60.4524 410.685 76.1804C405.168 91.9612 393.664 110.178 376.879 130.577C373.74 134.392 376.244 140.5 381.486 140.5H577V584.5H463.947C459.291 584.5 456.678 589.47 458.606 593.322C483.963 643.984 481.59 676.063 462.535 695.642C452.838 705.606 438.507 712.723 420.265 717.336C402.039 721.945 380.122 724 355.5 724C330.915 724 307.195 721.921 286.468 717.265C265.708 712.601 248.154 705.397 235.714 695.291C223.364 685.258 216.029 672.363 215.512 655.966C214.99 639.428 221.393 618.954 237.387 593.91C239.823 590.096 237.383 584.5 232.372 584.5H19.3262L3.99903 490.391C3.99941 490.391 3.99978 490.391 4.00017 490.391C4.04373 490.362 4.09379 490.347 4.13318 490.345C4.15052 490.344 4.16405 490.345 4.17504 490.348C4.1851 490.35 4.20092 490.355 4.22416 490.367C32.6349 506.079 54.7466 510.458 71.9463 506.619C89.2768 502.751 100.918 490.707 108.688 475.25C116.431 459.846 120.482 440.787 122.619 422.191C124.759 403.559 125 385.164 125 371C125 342.525 118.113 304.444 99.5556 279.687C90.2112 267.22 77.8003 258.002 61.7605 255.3C45.7648 252.605 26.6297 256.47 3.95332 269.207C3.93037 269.22 3.91512 269.225 3.90609 269.227C3.8962 269.229 3.88437 269.231 3.86927 269.23C3.83494 269.228 3.78931 269.216 3.7478 269.19C3.74193 269.186 3.73681 269.182 3.73239 269.179L19.4315 140.5H166.829C171.732 140.5 174.414 135.02 171.814 131.103C158.544 111.108 148.835 93.0568 144.071 77.2621C139.312 61.4831 139.596 48.3457 145.727 37.7607C151.881 27.1338 164.32 18.3958 185.405 12.3307C206.471 6.27139 235.768 3 275 3Z"/>
  </clipPath>
</svg>