<svg >
  <clipPath
    id="puzzle-fact-outer-7"
    clipPathUnits="objectBoundingBox"
    transform="scale(0.0019342359767892 0.0036496350364964)"
  >
    <path d="M419.218 93.4193C419.218 94.9503 420.894 95.901 422.236 95.1638C480.905 62.9301 517 69.5338 517 144.086C517 218.682 479.487 219.203 422.067 193.784C420.738 193.195 419.218 194.155 419.218 195.608L419.218 266.075L326.52 273.588C324.707 273.735 323.634 271.545 324.776 270.13C357.945 229.038 292.838 216.366 253.166 216.366C213.277 216.366 127.369 218.164 169.068 270.002C170.214 271.426 169.125 273.64 167.307 273.443L99.2043 266.075L99.2043 164.648C99.2043 163.199 97.6632 162.251 96.3314 162.821C23.9037 193.8 1.08018e-05 152.92 1.13606e-05 106.057C1.19199e-05 59.1539 23.5971 31.8455 96.5025 56.2421C97.8064 56.6784 99.2043 55.7278 99.2043 54.3529L99.2043 -1.36844e-05L419.218 -9.86832e-06L419.218 93.4193Z"/>
  </clipPath>
</svg>