<svg >
  <clipPath
    id="puzzle-footer-inner-1"
    clipPathUnits="objectBoundingBox"
    transform="scale(0.0010649627263046 0.0061349693251534)"
  >
    <path d="m -1,-1 v 165 h 330.5293 c 3.10577,0 4.90225,-3.52677 3.4375,-6.07422 v -0.002 c -7.99258,-13.89664 -8.76248,-23.51629 -5.61719,-30.46289 3.14541,-6.94689 10.72846,-11.97679 21.2832,-15.43164 C 369.7423,105.11959 401.5662,105 425.0957,105 c 23.5185,0 55.71421,0.133 76.24024,7.01172 10.26301,3.43936 17.22421,8.37638 19.56836,15.16016 2.34415,6.78377 0.4912,16.50724 -9.27149,30.44921 -1.76132,2.51605 10e-4,6.37891 3.23828,6.37891 h 371.83594 l 5.67969,-38.88672 c 7.00818,4.42756 13.5501,6.28884 19.41601,5.63477 6.605,-0.73649 12.07198,-4.45601 16.20704,-9.53907 C 936.27987,111.04287 940,95.372493 940,82 c 0,-13.228617 -2.80476,-29.768382 -10.55078,-40.845703 -3.87301,-5.538661 -9.21207,-9.760632 -15.98633,-10.800781 -5.97243,-0.917034 -12.80038,0.812957 -20.36328,5.251953 V -1 Z m 6,6 h 882.09961 v 34.054687 c 0,3.163272 3.7739,5.003233 6.30469,3.304688 8.01754,-5.384759 14.27866,-6.821945 19.14843,-6.074219 4.86978,0.747726 8.74486,3.681455 11.98047,8.308594 C 931.00443,53.848029 934,69.679517 934,82 c 0,12.198507 -3.78563,26.99245 -10.64453,35.42383 -3.42945,4.21569 -7.43237,6.82762 -12.21875,7.36133 -4.78639,0.5337 -10.674,-1.00631 -17.89258,-6.18946 l -0.002,-0.002 c -2.33821,-1.67717 -5.92362,-0.3078 -6.35547,2.65625 L 881.51953,158 H 518.40625 c 8.57137,-13.25906 11.16133,-24.12653 8.16797,-32.78906 -3.22873,-9.34367 -12.20655,-15.16028 -23.33203,-18.88867 C 480.99121,98.865482 448.6142,99 425.0957,99 c -23.5295,0 -55.58356,-0.119374 -78.33008,7.32617 -11.37325,3.72277 -20.71402,9.45738 -24.88085,18.66016 -3.87942,8.56799 -2.56552,19.59399 4.4746,33.01367 H 5 Z M 2,2 h 888.1 v 37.0544 c 0,0.8138 0.956,1.2673 1.632,0.8136 C 925.399,17.2565 937,56.4509 937,82 c 0,25.571 -15.01,60.929 -45.506,39.032 -0.619,-0.444 -1.529,-0.105 -1.639,0.65 L 884.113,161 H 514.871 c -0.817,0 -1.249,-0.989 -0.78,-1.658 C 554.244,102 472.132,102 425.095,102 c -47.059,0 -127.755,0 -94.728,57.421 0.388,0.674 -0.061,1.579 -0.838,1.579 H 2 Z"/>
  </clipPath>
</svg>