<svg >
  <clipPath
    id="puzzle-fact-outer-8"
    clipPathUnits="objectBoundingBox"
    transform="scale(0.002710027100271 0.0023364485981308)"
  >
    <path d="M125.871 80.9491C127.612 80.9491 128.508 78.851 127.355 77.5469C84.8631 29.5107 94.2665 0 194.043 0C293.895 0 295.192 30.6813 261.588 77.7308C260.635 79.065 261.569 80.9491 263.208 80.9491H358.327L368.476 157.927C368.692 159.562 366.896 160.725 365.432 159.966C308.787 130.612 291.383 185.251 291.383 218.415C291.383 251.694 293.842 323.664 365.253 287.213C366.746 286.452 368.571 287.675 368.28 289.326L358.327 345.873H221.505C219.871 345.873 218.958 347.784 219.881 349.132C260.453 408.405 205.63 428 142.828 428C79.9458 428 43.216 408.639 75.3058 348.917C76.0301 347.569 75.089 345.873 73.5587 345.873H9.47714e-06V80.9491H125.871Z"/>
  </clipPath>
</svg>