<svg >
  <clipPath
    id="puzzle-fact-inner-10"
    clipPathUnits="objectBoundingBox"
    transform="scale(0.0025252525252525 0.0029239766081871)"
  >
    <path d="M394 263.39V2H2.164L6.45786 56.4291C6.45898 56.4297 6.46021 56.4303 6.46149 56.431C6.48148 56.4408 6.5036 56.4453 6.52133 56.4449C6.52924 56.4448 6.53561 56.4438 6.54095 56.4423C6.54596 56.4409 6.55322 56.4383 6.56351 56.4324C22.522 47.1444 36.3003 43.0926 48.0398 43.0236C59.8203 42.9544 69.428 46.8991 76.9599 53.37C91.9224 66.2247 98.4702 88.8134 98.4702 109.105C98.4702 109.802 98.4707 110.513 98.4712 111.238C98.4781 120.923 98.4868 132.999 97.304 145.137C96.0348 158.162 93.3785 171.459 87.7437 182.083C82.0685 192.783 73.3171 200.848 59.989 203.063C46.7961 205.255 29.4579 201.654 6.65222 189.927C6.63647 189.918 6.62119 189.915 6.60095 189.915C6.57755 189.916 6.55142 189.922 6.52945 189.933L2.12354 263.39H145.669C148.81 263.39 150.578 266.78 149.177 269.372C141.765 283.089 137.821 294.52 137.415 303.853C137.016 313.057 140.047 320.241 146.787 325.756C153.646 331.368 164.502 335.379 179.969 337.683C195.399 339.982 215.199 340.554 239.738 339.471C248.9 339.066 260.472 338.435 272.019 336.698C283.592 334.958 294.985 332.127 303.846 327.402C312.68 322.692 318.773 316.234 320.302 307.264C321.847 298.196 318.83 286.031 308.141 269.728C306.495 267.218 308.044 263.39 311.448 263.39H394Z"/>
  </clipPath>
</svg>