<svg >
  <clipPath
    id="puzzle-footer-outer-4"
    clipPathUnits="objectBoundingBox"
    transform="scale(0.0010449320794148 0.0061349693251534)"
  >
    <path d="m 38.939453,2.296875 c 1.753906,11.716797 3.507813,23.433594 5.261719,35.150391 C 39.101948,33.863097 33.510816,30.622662 27.284941,29.572103 22.866652,28.801979 18.102653,29.632309 14.440034,32.297405 9.9474312,35.49191 7.198619,40.527288 5.310135,45.589486 2.3508501,53.703127 1.2074382,62.342756 0.53515625,70.912109 0.0445702,78.193207 -0.15853802,85.503684 0.14197837,92.797345 0.61898348,102.30787 1.942858,111.86578 5.0915386,120.88625 c 2.1121948,5.90811 5.1139274,11.75747 9.9929684,15.8543 3.843705,3.30476 9.018917,4.93005 14.062429,4.51602 5.644687,-0.40644 10.952268,-2.74413 15.759314,-5.61009 0,9.11784 0,18.23568 0,27.35352 196.87692,-0.003 393.75413,0.005 590.63086,-0.004 1.96569,-0.0184 3.38136,-2.2611 2.66992,-4.0625 -1.1394,-2.22149 -2.38946,-4.39775 -3.39463,-6.69058 -2.65975,-5.91759 -4.67085,-12.4135 -3.98235,-18.97081 0.48011,-4.96313 2.96599,-9.60815 6.60159,-12.98314 5.07822,-4.74656 11.617,-7.54997 18.17187,-9.60449 6.8863,-2.14138 14.15326,-3.43629 21.20118,-4.36816 4.06415,-0.51686 8.20515,-0.92554 12.34762,-1.23591 3.07687,-0.23212 6.32227,-0.4197 9.42467,-0.56181 3.93563,-0.17855 7.82546,-0.29422 11.72421,-0.37093 11.63483,-0.20964 23.27292,-0.15894 34.90894,-0.097 5.91741,0.0632 11.86783,0.19254 17.72431,0.44165 12.12665,0.55991 24.37064,1.53514 36.28953,4.15655 7.24272,1.65975 14.53387,3.85372 20.78189,7.9936 4.05021,2.69192 7.56913,6.58536 8.7251,11.41563 1.34705,5.43135 -0.0823,11.1053 -2.23151,16.12899 -2.18957,5.12471 -5.26156,9.80864 -8.4975,14.32257 -0.97962,1.70621 0.12775,4.16257 2.10324,4.44854 3.69887,0.0973 7.40886,0.0139 11.112,0.0417 41.9276,0 83.85521,0 125.78281,0 0,-54.33333 0,-108.666667 0,-163 -122.95631,0.00390629 -245.9132,-0.00781256 -368.86914,0.00585938 -1.95602,0.02915561 -3.33512,2.25604292 -2.64814,4.04727442 0.60376,1.3023268 1.64059,2.356453 2.38889,3.5794662 3.81171,5.64324 7.26502,11.74057 8.62455,18.483409 0.93991,4.583718 0.45721,9.604403 -2.12232,13.596177 -3.05286,4.821525 -8.11087,7.914321 -13.22344,10.171845 -8.22447,3.529666 -17.08171,5.268585 -25.90235,6.530246 -10.15418,1.390062 -20.40944,2.002233 -30.56694,2.301192 -12.89603,0.377766 -25.79993,0.287193 -38.69978,0.24799 -6.33425,-0.04794 -12.56058,-0.174836 -18.86962,-0.437003 -5.99237,-0.26173 -11.94639,-0.653023 -17.93961,-1.279695 -1.62801,-0.17697 -3.26976,-0.364773 -4.80687,-0.561214 -9.64032,-1.291721 -19.32882,-3.118212 -28.31408,-6.96042 -5.69287,-2.49389 -11.27125,-5.974225 -14.69644,-11.302788 -2.90609,-4.438663 -3.67336,-9.982453 -2.90616,-15.163829 0.95687,-6.798634 3.90326,-13.116345 7.20965,-19.0631975 0.77772,-1.7693091 -0.52307,-4.06424164 -2.48242,-4.18164062 C 376.18357,-0.01823083 349.18943,0.00911583 322.19648,0 227.66289,0 133.1293,0 38.595703,0 c 0.114583,0.765625 0.229167,1.53125 0.34375,2.296875 z" />
  </clipPath>
</svg>