<svg >
  <clipPath
    id="puzzle-fact-inner-5"
    clipPathUnits="objectBoundingBox"
    transform="scale(0.0022988505747126 0.0037593984962406)"
  >
    <path d="M8.40053 66.4449L2.20161 2H131.484C131.485 2.00221 131.487 2.00473 131.489 2.00758C131.502 2.0293 131.51 2.05508 131.511 2.07799C131.513 2.09671 131.51 2.11329 131.501 2.13346C125.079 16.2199 123.894 27.6664 126.778 36.9006C129.668 46.1556 136.523 52.7986 145.35 57.5207C162.88 66.8982 188.912 69.0911 210.448 69.0911C231.997 69.0911 258.847 66.6094 277.12 57.1138C286.303 52.3419 293.531 45.6874 296.662 36.4908C299.795 27.2887 298.685 15.9594 292.073 2.14274C292.063 2.12151 292.06 2.10387 292.061 2.08394C292.063 2.05962 292.071 2.03223 292.085 2.00908C292.087 2.00561 292.089 2.0026 292.09 2H419.2L432.273 80.9C432.269 80.9033 432.264 80.907 432.258 80.9109C432.229 80.9299 432.198 80.9374 432.178 80.9381C432.17 80.9384 432.164 80.9376 432.159 80.9363C432.155 80.9353 432.145 80.9323 432.128 80.922C417.615 72.0713 404.786 68.5325 393.658 69.0208C382.5 69.5103 373.241 74.0412 365.901 80.9741C351.313 94.7527 344.293 117.992 344.293 138.32C344.293 158.608 350.497 181.014 364.758 193.883C371.942 200.366 381.126 204.377 392.409 204.453C403.647 204.529 416.831 200.702 432.097 191.777C432.113 191.767 432.123 191.765 432.126 191.764C432.13 191.763 432.135 191.762 432.143 191.762C432.147 191.763 432.153 191.763 432.159 191.765C432.175 191.768 432.196 191.776 432.216 191.789C432.22 191.791 432.223 191.794 432.226 191.796L419.224 264H265.949C265.948 263.999 265.947 263.998 265.947 263.996C265.934 263.973 265.927 263.946 265.927 263.924C265.927 263.907 265.929 263.892 265.941 263.872C274.37 248.751 277.203 236.659 275.478 227.009C273.733 217.243 267.405 210.41 258.559 205.69C249.767 200.999 238.344 198.306 225.979 196.771C213.587 195.233 200.09 194.84 187.065 194.84C156.802 194.84 126.659 199.232 107.339 209.936C97.6459 215.307 90.4622 222.388 87.5515 231.508C84.6323 240.654 86.1474 251.418 92.9493 263.844C92.9621 263.867 92.9656 263.886 92.9652 263.905C92.9646 263.93 92.9572 263.96 92.9429 263.985C92.9396 263.991 92.9365 263.996 92.9338 264H2.16431L8.45796 184.371C8.47429 184.361 8.49379 184.355 8.51139 184.353C8.52634 184.352 8.53762 184.354 8.54942 184.358C31.8713 193.435 49.6465 197.006 63.205 196.321C76.8557 195.632 86.2596 190.62 92.6003 182.636C98.8665 174.747 101.972 164.165 103.543 152.623C105.117 141.064 105.183 128.283 105.183 115.858C105.183 90.7915 98.0596 70.7138 81.9115 60.8335C65.7933 50.9716 41.5134 51.7903 8.47155 66.4524C8.46381 66.4558 8.45868 66.4571 8.45544 66.4576C8.45191 66.4583 8.44775 66.4586 8.44257 66.4583C8.43084 66.4576 8.41598 66.4536 8.40247 66.446C8.40179 66.4457 8.40114 66.4453 8.40053 66.4449ZM265.917 264C265.917 264 265.918 264 265.919 264L265.917 264Z"/>
  </clipPath>
</svg>
