<svg >
  <clipPath
    id="puzzle-footer-inner-6"
    clipPathUnits="objectBoundingBox"
    transform="scale(0.0010309278350515 0.0045045045045045)"
  >
    <path d="m 743.46484,0 c -23.4975,0 -55.13677,-0.08063772 -77.31054,7.28125 -11.08689,3.680944 -20.0019,9.309667 -23.92383,18.132812 -3.78875,8.523529 -2.469,19.629569 5.10156,33.585938 H 57.880859 V 86.416016 C 46.111935,79.083286 36.44021,76.476377 28.539062,77.671875 20.297685,78.918852 14.248423,84.220986 10.072266,91.197266 1.7199502,105.14983 0,126.02791 0,140 c 0,13.97006 1.7229093,35.55828 10.052734,50.00391 4.164913,7.22281 10.200173,12.74289 18.46875,14.01171 7.923,1.2158 17.602899,-1.56651 29.359375,-9.3164 V 222 H 970 V 59 H 835.10547 C 844.86196,45.161544 847.72054,34.159156 844.82031,25.544922 841.81088,16.606323 833.08333,10.944909 821.97656,7.2675781 799.76302,-0.08708271 766.94784,0 743.46484,0 Z m 0,4 c 23.483,0 56.1837,0.088339 77.25391,7.064453 10.5351,3.488057 17.89201,8.574289 20.31055,15.757813 2.41853,7.183523 0.19337,17.246358 -10.10938,31.320312 C 829.53715,60.033399 830.8441,63 833.29883,63 H 966 V 218 H 61.880859 v -25.05664 c 0,-2.40172 -2.867862,-3.74896 -4.771484,-2.44336 h -0.002 c -11.981987,8.22434 -21.118305,10.61325 -27.978516,9.56055 -6.86021,-1.05271 -11.827857,-5.49533 -15.611328,-12.05664 C 5.9506357,174.88128 4,153.61494 4,140 c 0,-13.61691 1.9545873,-34.13363 9.505859,-46.748047 3.775636,-6.307207 8.736708,-10.581867 15.63086,-11.625 6.894152,-1.043132 16.051495,1.209972 28.039062,8.984375 h 0.002 c 1.912371,1.240211 4.703125,-0.119984 4.703125,-2.490234 V 63 H 648.9043 c 2.32046,0 3.6725,-2.63513 2.58203,-4.558594 -7.96085,-14.053946 -8.85715,-24.073892 -5.59961,-31.402344 3.25753,-7.328451 10.99285,-12.465346 21.52734,-15.96289 C 688.48304,4.0810846 719.96734,4 743.46484,4 Z" />
  </clipPath>
</svg>