<svg >
  <clipPath
    id="puzzle-footer-inner-3"
    clipPathUnits="objectBoundingBox"
    transform="scale(0.0011210762331839 0.00355871886121)"
  >
    <path d="m 415.38281,4.0136719 c -5.91121,0.032409 -11.85061,0.1007398 -17.70357,0.2980947 -8.14941,0.2560858 -16.18659,0.7313273 -24.29785,1.651456 -1.27369,0.1449021 -2.63366,0.3082012 -3.90742,0.4860589 -9.305,1.2851656 -18.64407,3.1126541 -27.31735,6.8256105 -5.66479,2.478656 -11.21026,5.937382 -14.64333,11.21804 -2.95072,4.463499 -3.73899,10.059321 -2.95196,15.283234 0.95964,6.786329 3.90141,13.091891 7.20234,19.028522 0.77849,1.77012 -0.52376,4.062609 -2.48242,4.18164 -26.9922,0.0319 -53.98635,0.0046 -80.9793,0.01367 C 166.86797,63 85.433984,63 4,63 c 0,51.66667 0,103.33333 0,155 134.98564,0.003 269.97158,-0.005 404.95703,0.004 1.96569,0.0184 3.38136,2.2611 2.66992,4.0625 -1.19457,2.3217 -2.49654,4.60103 -3.53745,7.00343 -2.63457,5.93592 -4.5991,12.46683 -3.80416,19.02334 0.57727,5.02188 3.2209,9.66544 6.9795,12.99883 5.27027,4.72948 11.97277,7.46778 18.66919,9.50193 4.32044,1.27859 8.72815,2.24157 13.16558,3.01348 0.75005,0.123 1.8629,0.31457 2.63262,0.42926 4.08052,0.63294 7.94894,1.08763 12.07441,1.47995 6.04488,0.55924 12.05657,0.90713 18.13452,1.12225 12.51177,0.44548 25.15374,0.3545 37.7311,0.34676 7.49519,-0.0347 15.05531,-0.15623 22.48399,-0.46416 12.10528,-0.55195 24.32294,-1.5064 36.22759,-4.08571 7.17769,-1.61209 14.39201,-3.74546 20.64858,-7.72328 4.2059,-2.67483 7.93566,-6.57091 9.20513,-11.51015 1.42198,-5.32224 0.1034,-10.93114 -1.95436,-15.90173 -2.20839,-5.30753 -5.36452,-10.15146 -8.71092,-14.80061 -0.95936,-1.67125 0.0675,-4.09031 1.99609,-4.43359 2.02714,-0.15415 4.07877,-0.0228 6.11523,-0.0664 96.10547,0 192.21094,0 288.31641,0 0,-7.78385 0,-15.56771 0,-23.35156 -5.33341,3.17636 -11.33788,5.74033 -17.65112,5.65749 -4.94204,-0.0248 -9.76939,-2.12315 -13.29164,-5.56462 -4.78379,-4.59961 -7.60893,-10.81124 -9.60056,-17.04571 -2.97009,-9.60921 -4.12541,-19.69634 -4.33567,-29.72449 -0.0754,-10.62814 0.3262,-21.31353 2.21193,-31.79326 1.28165,-6.7562 3.13097,-13.58787 6.96394,-19.382928 2.54382,-3.848774 6.3532,-7.052334 10.93575,-8.060468 5.29294,-1.217076 10.77856,0.30825 15.55916,2.602702 2.98693,1.432226 5.80374,3.195595 8.50313,5.11011 C 885.62695,85.298177 883.95898,74.149089 882.29102,63 c -122.69459,-0.0039 -245.38977,0.0078 -368.08399,-0.0059 -1.95528,-0.02973 -3.33549,-2.255462 -2.64813,-4.047275 0.60375,-1.302327 1.64058,-2.356453 2.38888,-3.579466 3.82052,-5.664677 7.2907,-11.783963 8.63793,-18.554561 0.91277,-4.535756 0.43537,-9.489607 -2.08938,-13.450693 -3.0265,-4.834124 -8.07371,-7.941407 -13.17797,-10.206505 C 499.10181,9.6105566 490.24686,7.8671035 481.4292,6.5989601 471.2776,5.2049565 461.02182,4.5880311 450.867,4.287578 439.04288,3.9244061 427.21083,4.0090969 415.38281,4.0136719 Z" />
  </clipPath>
</svg>