<svg >
  <clipPath
    id="puzzle-footer-outer-3"
    clipPathUnits="objectBoundingBox"
    transform="scale(0.0011210762331839 0.00355871886121)"
  >
    <path d="m 415.36523,0.01367188 c -16.8181,0.10741843 -33.7053,0.47659587 -50.35742,3.03906252 -9.34183,1.5128486 -18.72168,3.6412463 -27.24919,7.8638806 -5.95051,2.974144 -11.54691,7.259049 -14.68254,13.254105 -2.87838,5.353478 -3.34912,11.709425 -2.24912,17.612798 C 321.93417,47.856912 324.39474,53.595376 327.32031,59 218.21354,59 109.10677,59 0,59 c 0,54.33333 0,108.66667 0,163 135.71354,0 271.42708,0 407.14062,0 -3.61381,6.69759 -6.59929,13.9772 -7.00374,21.66079 -0.33958,5.78827 1.25373,11.72661 4.77629,16.37011 4.27931,5.73885 10.67047,9.46238 17.21222,12.08924 9.40617,3.71198 19.4356,5.52235 29.43475,6.75061 19.04535,2.24876 38.25952,2.12458 57.40704,2.12242 17.23716,-0.0316 34.53212,-0.24449 51.64898,-2.47155 9.32871,-1.26712 18.68571,-3.07384 27.41311,-6.70392 5.92442,-2.52137 11.71823,-6.0785 15.34738,-11.53871 2.94303,-4.35334 3.95029,-9.81298 3.25226,-14.98016 -0.9501,-7.19007 -4.31481,-13.79659 -8.17498,-19.83932 -0.7531,-1.17082 -1.53544,-2.32256 -2.3387,-3.45951 98.62826,0 197.25651,0 295.88477,0 -0.0141,-9.83118 0.0281,-19.66427 -0.0211,-29.49426 -0.19151,-1.9657 -2.54357,-3.20823 -4.29535,-2.33777 -4.69931,2.92339 -9.81569,5.57489 -15.41601,6.07812 -4.14509,0.41392 -8.43687,-0.87479 -11.58144,-3.6266 -4.28854,-3.65964 -6.85836,-8.87584 -8.73469,-14.09502 -0.43375,-1.21003 -0.83583,-2.51251 -1.16179,-3.63442 -0.45093,-1.55622 -0.79534,-2.96114 -1.16075,-4.55802 -0.71268,-3.2113 -1.2508,-6.4922 -1.63983,-9.68617 -0.91911,-7.33283 -1.0079,-14.7385 -0.784,-22.11656 0.0505,-1.62603 0.12714,-3.47181 0.21976,-5.18052 0.36411,-6.36135 1.0079,-12.72459 2.34274,-18.96206 0.0881,-0.39367 0.25338,-1.1663 0.34628,-1.53218 1.33685,-5.48366 3.15488,-11.04852 6.75137,-15.497118 2.25736,-2.809706 5.60641,-4.835609 9.25618,-5.017927 4.90865,-0.292643 9.59296,1.74298 13.78289,4.098005 1.68238,0.969246 3.15345,1.922065 4.7396,3.036013 1.29966,0.770937 2.38594,2.222177 4.03419,2.137207 1.81339,0.008 3.33756,-1.844705 2.89387,-3.624923 C 889.62645,84.990576 887.68341,71.994985 885.73633,59 c -123.14714,0 -246.29427,0 -369.44141,0 4.35172,-6.213074 8.27925,-12.937803 10.00292,-20.394762 1.24187,-5.333346 0.96451,-11.18134 -1.67034,-16.068274 -2.92051,-5.565042 -8.20775,-9.4393 -13.75055,-12.138526 C 503.12415,6.6626867 494.65785,4.7032682 486.21221,3.2807669 470.48771,0.73993221 454.52537,0.2372738 438.625,0.046875 430.87195,-0.0154357 423.11846,0.00167195 415.36523,0.01367188 Z" />
  </clipPath>
</svg>