<svg>
  <clipPath
    id="puzzle-inner-6"
    clipPathUnits="objectBoundingBox"
    transform="scale(0.0013550135501355 0.0013774104683196)"
  >
    <path d="M362.799 3.86786C387.898 5.55388 411.859 8.92569 432.443 14.4204C453.074 19.9275 470.064 27.5026 481.448 37.4338C492.71 47.2596 498.466 59.3466 496.948 74.3391C495.408 89.5562 486.333 108.196 466.811 130.777C463.619 134.468 465.823 140.898 471.288 140.898H584.248L597.555 294.907C597.969 299.692 603.427 301.841 607.096 299.264C629.694 283.397 648.99 273.723 665.156 269.928C681.24 266.151 694.012 268.228 704.02 275.584C714.139 283.022 721.931 296.217 727.171 315.71C732.403 335.171 735 360.57 735 391.942C735 423.403 732.938 451.102 728.334 473.662C723.716 496.287 716.61 513.392 706.791 524.013C697.156 534.433 684.731 538.817 668.576 535.721C652.18 532.579 631.879 521.701 607.094 501.169C603.674 498.335 597.964 499.948 597.196 504.778L584.439 584.976H413.795C409.163 584.976 406.623 589.888 408.399 593.681C422.843 624.523 427.784 647.867 426.423 665.494C425.073 682.971 417.52 695.007 406.425 703.431C395.212 711.944 380.226 716.875 363.969 719.65C347.743 722.42 330.514 723 315 723C284.181 723 233.609 716.464 199.289 696.914C182.174 687.165 169.478 674.398 164.927 657.953C160.388 641.55 163.749 620.737 180.372 594.419C182.748 590.657 180.431 584.976 175.353 584.976H17.2214L3.77331 447.226C3.78523 447.215 3.80436 447.201 3.8329 447.187C3.89648 447.156 3.95534 447.15 3.98839 447.153C4.00219 447.154 4.01077 447.157 4.01708 447.16C4.02227 447.162 4.03817 447.169 4.06478 447.192C21.8279 462.429 39.3309 469.752 55.7083 470.424C72.114 471.097 87.0365 465.079 99.5532 454.299C124.474 432.836 140 392.454 140 346.934C140 301.313 127.49 259.392 104.13 234.957C92.3934 222.679 77.8872 214.8 60.9358 213.227C44.0159 211.658 24.9796 216.4 4.18338 228.769C4.15847 228.784 4.14316 228.788 4.13605 228.79C4.12802 228.792 4.11836 228.793 4.10529 228.793C4.07487 228.792 4.02922 228.78 3.98501 228.752C3.97335 228.745 3.96432 228.738 3.95747 228.732L17.0849 140.898H234.994C240.087 140.898 242.599 135.118 239.878 131.266C225.603 111.053 218.294 92.5148 217.139 76.3135C215.99 60.2031 220.905 46.2451 231.427 34.9266C252.671 12.0752 297.328 -0.530181 362.799 3.86786Z"/>
  </clipPath>
</svg>