<svg >
  <clipPath
    id="puzzle-footer-outer-5-sr"
    clipPathUnits="objectBoundingBox"
    transform="scale(0.003448275862069 0.0151515151515152)"
  >
    <path d="m -1,1 c 0,22 0,44 0,66 59.104051,-0.0052 118.20903,0.01042 177.3125,-0.0078 2.0133,-0.02256 3.42235,-2.379177 2.59742,-4.184562 -0.57108,-1.387999 -2.11631,-1.919386 -3.18379,-2.852558 -3.3735,-2.544391 -6.78569,-5.232992 -9.13371,-8.799957 -0.98273,-1.51673 -1.80623,-3.64155 -0.63539,-5.287923 1.61275,-2.154119 4.2873,-3.094095 6.74562,-3.921996 1.22307,-0.378501 2.24065,-0.636475 3.48392,-0.91257 7.7334,-1.626397 15.67072,-1.960615 23.55169,-2.028743 8.00083,-0.0051 16.0694,0.596445 23.82927,2.638897 3.46626,0.999605 7.06931,2.187522 9.75243,4.704862 1.36662,1.226743 2.01856,3.226938 1.35445,4.981266 -1.11054,3.101819 -3.63344,5.408431 -6.06855,7.506282 -1.25324,1.106967 -2.69376,1.990101 -3.94961,3.082783 -1.42166,1.464529 -0.77932,4.206179 1.14913,4.882316 1.31714,0.398275 2.73099,0.113687 4.08915,0.199715 20.36849,0 40.73698,0 61.10547,0 0,-22.666667 0,-45.333333 0,-68 -42.05717,0.005209 -84.11529,-0.010417 -126.17188,0.007813 -1.51539,0.0197804 -3.19991,1.13540303 -3.10651,2.7892953 0.062,1.251498 1.18789,1.9363993 2.16053,2.4906251 2.21141,1.4929083 4.554,3.1707295 5.64206,5.6969475 0.74238,1.6578906 -0.19618,3.4803466 -1.47413,4.5704416 -2.79996,2.476129 -6.4476,3.696728 -9.99662,4.658885 -7.97334,2.015238 -16.31782,2.155114 -24.4597,1.254743 -0.38452,-0.04751 -1.21134,-0.155729 -1.76563,-0.228516 -4.72096,-0.747613 -9.56826,-1.752251 -13.66406,-4.339843 -1.66775,-1.093776 -3.38475,-2.825848 -3.11634,-4.991929 0.38827,-2.6287829 2.33485,-4.6633499 4.17509,-6.4318023 0.85668,-0.777597 2.05677,-1.5565233 1.93752,-2.8813246 C 121.092,-0.14493066 119.19177,-1.1658351 117.6,-1 78.066667,-1 38.533333,-1 -1,-1 c 0,0.66666667 0,1.33333333 0,2 z" />
  </clipPath>
</svg>