<svg >
  <clipPath
    id="puzzle-footer-inner-2"
    clipPathUnits="objectBoundingBox"
    transform="scale(0.0010893246187364 0.0045045045045045)"
  >
    <path d="m 9.9863281,37.242188 c 5.4305839,-3.409262 11.6000539,-6.153404 18.1230469,-6.140626 5.213483,-0.03263 10.323082,2.122281 14.10583,5.67731 5.045429,4.653001 8.164027,10.985435 10.34893,17.399641 3.01371,9.116999 4.327905,18.754487 4.315769,28.340995 -0.117905,9.362771 -1.879396,18.752792 -5.504904,27.402372 -2.703691,6.29366 -6.563069,12.37677 -12.314386,16.28876 -4.305962,2.96936 -9.72484,4.22334 -14.898601,3.46408 -5.324418,-0.72313 -10.256107,-3.1575 -14.6717786,-6.1298 C 7.7643229,135.36328 6.0384115,147.18164 4.3125,159 c 119.92314,0.003 239.84658,-0.005 359.76953,0.004 1.96516,0.0186 3.37998,2.26244 2.66797,4.0625 -1.13377,2.21036 -2.37692,4.37595 -3.37893,6.65651 -2.65073,5.87843 -4.6591,12.32748 -4.02093,18.84679 0.44771,4.97294 2.89727,9.64898 6.52615,13.04505 4.99244,4.71465 11.43762,7.52181 17.90428,9.58054 4.72233,1.4945 9.57014,2.55884 14.44599,3.41212 0.75005,0.123 1.8629,0.31457 2.63262,0.42926 4.04848,0.62824 7.88368,1.07924 11.9748,1.47113 6.05336,0.56162 12.03332,0.9077 18.13613,1.1279 12.51308,0.44784 25.15452,0.35757 37.73301,0.35062 7.52909,-0.0346 15.12343,-0.15542 22.58594,-0.46485 12.10593,-0.55191 24.32425,-1.50633 36.22954,-4.08571 7.21013,-1.61988 14.45965,-3.76311 20.73413,-7.77816 4.19922,-2.68575 7.90906,-6.60462 9.14734,-11.55188 1.39543,-5.35811 0.035,-10.98413 -2.04851,-15.97292 -2.20783,-5.24211 -5.33174,-10.03146 -8.64258,-14.63281 -0.9609,-1.67361 0.0706,-4.09437 2.00196,-4.43555 2.09264,-0.14978 4.20806,-0.022 6.30937,-0.0644 119.6599,0 239.31979,0 358.97969,0 0,-51.66667 0,-103.333333 0,-155 C 612.66211,4 311.32422,4 9.9863281,4 c 0,11.080729 0,22.161458 0,33.242188 z" />
  </clipPath>
</svg>