<svg >
  <clipPath
    id="puzzle-fact-outer-1"
    clipPathUnits="objectBoundingBox"
    transform="scale(0.0022988505747126 0.0036764705882353)"
  >
    <path d="M176.802 272C178.342 272 179.271 270.264 178.526 268.916C139.499 198.245 199.73 187.378 245.686 187.378C291.609 187.378 360.854 198.229 313.913 268.761C313.018 270.107 313.923 272 315.539 272H435V0H81.6944L86.7067 54.1586C86.8663 55.8829 84.8537 56.9623 83.4306 55.9757C26.0173 16.1722 0 69.6826 0 115.449C0 161.35 21.2277 227.869 83.6752 189.57C85.0827 188.707 86.9692 189.738 86.8636 191.386L81.6944 272H176.802Z"/>
  </clipPath>
</svg>