<svg >
  <clipPath
    id="puzzle-footer-inner-5"
    clipPathUnits="objectBoundingBox"
    transform="scale(0.0011210762331839 0.0061349693251534)"
  >
    <path d="m 4,159 c 294.66667,0 589.33333,0 884,0 0,-7.73438 0,-15.46875 0,-23.20312 -6.45612,4.22859 -13.50923,7.90999 -21.20641,9.14698 -5.58944,0.90975 -11.5551,0.10586 -16.44074,-2.86016 -5.77936,-3.42646 -9.76522,-9.15792 -12.55214,-15.14675 -4.0625,-8.86901 -6.01403,-18.54107 -7.15965,-28.180171 -1.53139,-13.669765 -1.36856,-27.56288 0.83258,-41.15135 1.43488,-8.467183 3.65457,-16.947354 7.91518,-24.466701 3.13703,-5.554467 7.73886,-10.550557 13.74813,-12.977793 5.91788,-2.46018 12.62878,-2.136728 18.68836,-0.376451 5.74582,1.645154 11.11511,4.389089 16.17469,7.533875 C 888,19.545573 888,11.772786 888,4 790.70508,4 693.41016,4 596.11523,4 c 4.35252,6.212792 8.27993,12.937347 10.00293,20.394762 1.2437,5.331943 0.96295,11.177636 -1.66722,16.064972 -2.93907,5.595644 -8.26395,9.483846 -13.8439,12.184939 -7.69797,3.694511 -16.09648,5.6411 -24.47582,7.058496 -15.7542,2.55479 -31.74843,3.058791 -47.68005,3.249956 -11.81454,0.05436 -23.63129,0.114826 -35.44437,-0.115863 -14.58938,-0.33419 -29.2385,-1.097096 -43.59911,-3.843318 -8.46916,-1.680397 -16.95335,-4.013283 -24.48389,-8.347761 -5.54006,-3.187532 -10.5202,-7.803725 -12.96708,-13.816366 -2.5086,-5.987914 -2.23589,-12.773285 -0.56552,-18.942948 C 402.68784,13.029907 404.74745,8.4092064 407.14062,4 272.76042,4 138.38021,4 4,4 4,55.666667 4,107.33333 4,159 Z" />
  </clipPath>
</svg>