<svg>
  <clipPath
    id="puzzle-inner-4"
    clipPathUnits="objectBoundingBox"
    transform="scale(0.0017064846416382 0.0022222222222222)"
  >
    <path d="M11.6251 112.491L3.23857 3H177.053C177.055 3.00193 177.056 3.00403 177.058 3.0063C177.075 3.03274 177.087 3.06455 177.09 3.0933C177.094 3.11686 177.092 3.13745 177.082 3.16249C168.276 27.0719 166.621 46.3152 170.348 61.742C174.092 77.2403 183.188 88.5515 195.195 96.6764C218.973 112.767 254.365 116.5 283.5 116.5C312.667 116.5 349.161 112.272 373.938 95.9836C386.429 87.7719 396.036 76.43 400.097 61.0128C404.144 45.6484 402.582 26.6179 393.508 3.17231C393.498 3.14588 393.496 3.12407 393.499 3.09922C393.502 3.06897 393.514 3.03548 393.532 3.00762C393.534 3.00483 393.536 3.0023 393.537 3H564.37L582.02 136.77C582.011 136.777 581.998 136.786 581.981 136.796C581.925 136.826 581.87 136.835 581.837 136.834C581.83 136.833 581.824 136.833 581.818 136.832C581.814 136.831 581.81 136.83 581.806 136.828C581.803 136.827 581.797 136.825 581.788 136.82C581.78 136.816 581.77 136.809 581.757 136.8C562.309 122.101 544.971 116.198 529.796 117.177C514.564 118.16 502.064 126.04 492.271 137.75C472.828 161.002 463.5 199.95 463.5 234C463.5 268.012 471.748 305.553 490.75 327.264C500.352 338.236 512.777 345.233 528.183 345.491C543.482 345.747 561.279 339.348 581.73 324.497C581.756 324.478 581.771 324.473 581.777 324.471C581.783 324.469 581.791 324.467 581.804 324.467C581.833 324.466 581.883 324.475 581.934 324.504C581.946 324.51 581.955 324.516 581.962 324.522L564.4 447H358.276C358.276 446.999 358.275 446.999 358.275 446.998C358.267 446.986 358.261 446.973 358.257 446.96C358.25 446.942 358.246 446.923 358.244 446.906C358.244 446.896 358.244 446.886 358.245 446.876C358.247 446.865 358.25 446.853 358.257 446.839C369.801 421.102 373.659 400.729 371.478 384.617C369.277 368.353 360.96 356.737 348.916 348.601C336.985 340.541 321.457 335.925 304.694 333.3C287.898 330.669 269.612 330 252 330C211.007 330 170.071 337.497 143.913 355.846C130.754 365.077 121.227 377.137 117.482 392.419C113.744 407.673 115.864 425.736 125.219 446.816C125.232 446.845 125.234 446.868 125.232 446.892C125.23 446.922 125.219 446.957 125.2 446.988C125.198 446.992 125.195 446.996 125.192 447H3.19475L11.7056 311.772C11.7344 311.757 11.7681 311.748 11.7976 311.747C11.8223 311.746 11.8414 311.75 11.8632 311.761C43.1399 326.966 67.1109 332.967 85.5019 331.717C104.13 330.451 116.82 321.755 125.262 308.325C133.584 295.084 137.714 277.362 139.81 257.957C141.911 238.507 142 216.993 142 196C142 153.972 132.555 120.303 110.94 103.554C89.0292 86.577 56.0808 87.9746 11.7544 112.497C11.74 112.505 11.7306 112.508 11.7251 112.51C11.7191 112.511 11.712 112.512 11.7031 112.512C11.6825 112.512 11.6552 112.507 11.6297 112.494C11.6281 112.493 11.6266 112.492 11.6251 112.491Z"/>
  </clipPath>
</svg>