<svg>
  <clipPath
    id="puzzle-second-screen"
    clipPathUnits="objectBoundingBox"
    transform="scale(0.0013736263736264 8.865248226950355e-4)"
  >
    <path d="M503.5 141.125C554.5 145.629 639 123.61 639 76.0674C639 41.6386 613.303 17.1828 599.127 6.31106C596.696 4.44667 598.053 0 601.116 0H703L727.116 532.042C727.271 535.471 721.46 536.866 719.843 533.838C710.116 515.633 692.04 489.934 667.5 489.934C629.5 489.934 599 551.553 592.5 606.037C586 660.521 596 754.669 641.5 765.178C675.177 772.957 706.39 739.611 720.336 721.757C722.299 719.243 726.843 721.005 726.472 724.173L679.161 1128H276.814C273.642 1128 272.233 1123.03 274.788 1121.15C289.352 1110.44 313.5 1086.88 313.5 1048.43C313.5 993.381 264 971.682 217 966.357C170 961.031 87.3302 975.495 79 1029.41C73.8369 1062.83 109.675 1099.52 129.867 1117.24C132.39 1119.45 129.908 1124.15 126.688 1123.21L0 1085.99V523.413C0 520.44 3.96832 519.328 5.69212 521.749C81.0437 627.604 121.67 526.509 128.5 467.915C135.5 407.862 123.126 341.286 97 314.279C72.6613 289.119 35.9891 298.702 6.39799 334.091C4.46748 336.4 0.49572 334.926 0.697483 331.923L23 0H441.486C444.318 0 445.67 3.66198 443.568 5.55937C429.858 17.9354 399 48.8182 399 76.0674C399 111.098 452.5 136.621 503.5 141.125Z" />
  </clipPath>
</svg>