<svg >
  <clipPath
    id="puzzle-fact-outer-3"
    clipPathUnits="objectBoundingBox"
    transform="scale(0.0022988505747126 0.0023364485981308)"
  >
    <path d="M213.963 0.515607C273.284 4.50115 322.692 24.4303 276.829 77.861C275.697 79.1789 276.579 81.2954 278.316 81.2954H345.996L353.944 173.298C354.078 174.846 355.886 175.635 357.16 174.744C410.543 137.406 435 156.924 435 231.062C435 305.37 415.574 345.384 357.032 297.081C355.826 296.087 353.933 296.725 353.687 298.269L345.996 346.631H244.274C242.796 346.631 241.859 348.243 242.482 349.582C276.471 422.545 222.317 428 185.671 428C149.154 428 65.3266 412.605 104.59 349.853C105.44 348.494 104.526 346.631 102.923 346.631H8.54675L0.52477 264.446C0.34444 262.599 2.59541 261.49 4.01336 262.688C44.8243 297.167 80.752 257.345 80.752 204.529C80.752 151.383 51.6499 108.035 3.80694 136.128C2.31859 137.002 0.403392 135.79 0.658477 134.083L8.54675 81.2954H138.049C139.698 81.2954 140.628 79.3805 139.683 78.0299C105.982 29.8973 136.716 -4.67439 213.963 0.515607Z"/>
  </clipPath>
</svg>
