<svg>
  <clipPath
    id="puzzle-outer-3"
    clipPathUnits="objectBoundingBox"
    transform="scale(0.0017035775127768 0.0017241379310345)"
  >
    <path d="M0 0H587L580.365 96.2239C580.204 98.5519 577.482 99.7655 575.538 98.4748C482.281 36.5608 444 117.303 444 185.032C444 253.085 441.554 397.888 575.549 319.219C577.509 318.069 580.144 319.31 580.263 321.579L587 450.077H370.82C368.598 450.077 367.174 452.467 368.128 454.474C412.942 548.766 377.747 586.486 231.5 579.099C176.992 576.345 63.1398 567.345 128.216 454.776C129.386 452.751 128.009 450.077 125.671 450.077H0V0Z" />
  </clipPath>
</svg>