<svg >
  <clipPath
    id="puzzle-footer-inner-5-sr"
    clipPathUnits="objectBoundingBox"
    transform="scale(0.003448275862069 0.0151515151515152)"
  >
    <path d="M1 65V1H118C118.73 1 119.5 1.54353 119 2C103 15.5447 121.876 22.9999 143 22.9999C164.124 22.9999 182.876 13.4503 164 2C163.26 1.55099 164.225 1 165 1H289L289 65L226.895 64.9997C225.897 64.9997 225.504 63.6746 226.319 63.0989C252.631 44.4913 224.692 36.9998 200.5 36.9998C176.185 36.9998 145.247 41.2567 176.694 63.1117C177.511 63.6792 177.133 64.9999 176.139 64.9999L1 65Z" />
  </clipPath>
</svg>