<svg >
  <clipPath
    id="puzzle-footer-inner-6"
    clipPathUnits="objectBoundingBox"
    transform="scale(0.0010309278350515 0.0045045045045045)"
  >
    <path d="m 734.32422,4.0136719 c -5.88909,0.032391 -11.80633,0.1006821 -17.63715,0.2986476 -4.90078,0.1475508 -9.80869,0.4005677 -14.64215,0.757993 -4.12802,0.310797 -8.26133,0.7184381 -12.30978,1.2363287 -7.93469,1.0538423 -16.04171,2.5551854 -23.69193,5.2419058 -6.12162,2.194822 -12.21407,5.182181 -16.62857,10.084473 -3.40244,3.712431 -5.28182,8.714029 -5.28294,13.740608 -0.0521,6.790722 2.37452,13.316624 5.35321,19.320912 0.69267,1.491882 1.61918,2.873517 2.269,4.379679 0.62602,1.82829 -0.88881,3.997876 -2.84961,3.925781 -195.67448,0 -391.34896,0 -587.023441,0 -0.01175,8.475683 0.02349,16.953189 -0.01758,25.427734 -0.130762,1.947693 -2.427687,3.246663 -4.183593,2.445313 -1.280229,-0.683164 -2.427893,-1.531427 -3.65164,-2.215361 -5.954264,-3.492341 -12.424754,-6.49842 -19.373836,-7.169401 -4.876958,-0.489259 -9.979832,0.641891 -13.949859,3.587087 -5.073045,3.702011 -8.27881,9.36195 -10.545082,15.101818 -0.3540331,0.89568 -0.7191046,1.91147 -0.9852863,2.69046 -0.9690526,2.8489 -1.739494,5.76246 -2.3849222,8.70071 -0.15057,0.70476 -0.363132,1.71322 -0.5153424,2.53858 -1.0132171,5.32713 -1.6278837,10.72502 -1.9690326,16.13525 -0.1196204,1.98455 -0.2170749,4.17336 -0.259125,6.23923 -0.2087451,10.93972 0.5411778,21.93802 2.7727476,32.66313 1.6634228,7.63119 4.0414619,15.2987 8.5566899,21.7617 2.933801,4.17966 7.141671,7.69004 12.203929,8.84888 5.832336,1.38588 11.908746,-0.0886 17.3117,-2.37486 3.472305,-1.47096 6.909913,-3.40962 9.988277,-5.39589 1.026619,-0.60143 1.850303,-1.36697 2.965694,-1.85796 1.79177,-0.68213 3.998819,0.71168 4.0304,2.65874 0.01367,8.40452 0.002,16.80996 0.0059,25.21484 301.373051,0 602.746091,0 904.119141,0 0,-51.66667 0,-103.33333 0,-155 -44.28573,-0.0039 -88.57205,0.0078 -132.85742,-0.0059 -1.96338,-0.02884 -3.34343,-2.271595 -2.64171,-4.064687 0.62484,-1.322182 1.67586,-2.397614 2.43634,-3.645015 3.76147,-5.594276 7.16798,-11.632083 8.52959,-18.302017 0.92133,-4.492647 0.51469,-9.397751 -1.91797,-13.369141 C 836.58751,18.715508 831.54261,15.551212 826.4337,13.257107 818.24779,9.6794119 809.40842,7.9239402 800.60938,6.6386719 790.46559,5.232118 780.2082,4.6021934 770.06139,4.2967627 758.15317,3.9230787 746.23654,4.0090533 734.32422,4.0136719 Z" />
  </clipPath>
</svg>