<svg >
  <clipPath
    id="puzzle-footer-inner-2"
    clipPathUnits="objectBoundingBox"
    transform="scale(0.0010893246187364 0.0045045045045045)"
  >
    <path d="m 4.9863281,-1 v 40.054687 c 0,3.162813 3.7738528,5.002695 6.3046879,3.302735 8.017271,-5.384703 14.278948,-6.819996 19.148437,-6.072266 4.86949,0.74773 8.743081,3.681458 11.978516,8.308594 6.47087,9.254271 9.466797,25.085728 9.466797,37.40625 0,12.198546 -3.786004,26.99246 -10.644532,35.42383 -3.429263,4.21568 -7.430711,6.82763 -12.216797,7.36133 -4.786085,0.53369 -10.674284,-1.00632 -17.892578,-6.18946 l -0.002,-0.002 C 8.7914314,116.9181 5.2056968,118.28538 4.7733905,121.248 L -1.4707031,164 H 360.79687 c -6.93993,13.42682 -8.1928,24.45301 -4.29492,33.01562 4.18562,9.19469 13.50578,14.93254 24.84766,18.65625 22.68375,7.44743 54.61553,7.32813 78.14453,7.32813 23.5145,0 56.36993,0.13113 78.86719,-7.31836 11.24863,-3.72474 20.31699,-9.53145 23.46484,-18.91016 2.91563,-8.68681 0.0852,-19.5409 -8.87695,-32.77148 H 919 V -1 Z M 10.986328,5 H 913 V 158 H 549.32031 c -3.26956,0 -5.01765,3.94949 -3.18359,6.45117 10.2233,13.94614 12.26334,23.66677 10,30.41016 -2.26334,6.74339 -9.26954,11.68437 -19.66016,15.125 C 515.69532,216.86759 483.00864,217 459.49414,217 c -23.529,0 -55.22869,-0.11998 -76.27344,-7.0293 -10.52237,-3.45466 -18.09099,-8.48474 -21.25781,-15.4414 -3.16682,-6.95666 -2.44331,-16.57954 5.43555,-30.47657 C 368.84302,161.50391 367.04231,158 363.94531,158 H 5.4707031 l 4.8007809,-32.88867 c 7.008795,4.42864 13.549656,6.29087 19.416016,5.63672 6.604773,-0.7365 12.072191,-4.456 16.207031,-9.53907 C 54.164211,111.04285 57.884766,95.372454 57.884766,82 c 0,-13.228578 -2.805174,-29.768374 -10.550782,-40.845703 -3.872803,-5.538664 -9.210327,-9.760599 -15.984375,-10.800781 -5.972245,-0.917063 -12.800613,0.81299 -20.363281,5.251953 z M 364.788,162.573 C 365.17,161.899 364.72,161 363.946,161 H 2 L 7.74133,121.682 C 7.8515,120.927 8.7611,120.588 9.38047,121.032 39.8753,142.929 54.8843,107.571 54.8843,82 c 0,-25.5491 -11.6,-64.7434 -45.26591,-42.1321 -0.6756,0.4538 -1.63149,3e-4 -1.63149,-0.8136 V 2 H 916 V 161 H 549.32 c -0.827,0 -1.253,1.01 -0.764,1.677 C 590.577,220 506.524,220 459.495,220 c -47.058,0 -127.265,0 -94.707,-57.427 z" />
  </clipPath>
</svg>