<svg >
  <clipPath
    id="puzzle-inner-3"
    clipPathUnits="objectBoundingBox"
    transform="scale(0.0017035775127768 0.0017241379310345)"
  >
    <path d="M3 447.077V3H583.786L577.375 95.9769C577.373 95.9779 577.371 95.9788 577.369 95.9798C577.334 95.9958 577.296 96.002 577.266 96.0002C577.253 95.9994 577.243 95.9972 577.234 95.9944C577.226 95.9918 577.214 95.9868 577.197 95.9755C553.583 80.2975 533.135 73.4375 515.656 73.3551C498.091 73.2722 483.819 80.0387 472.692 91.0002C450.637 112.728 441 150.812 441 185.032C441 186.213 440.999 187.418 440.998 188.645C440.988 205.064 440.976 225.492 442.722 246.025C444.597 268.059 448.515 290.494 456.804 308.406C465.124 326.386 478.027 340.139 497.899 343.957C517.569 347.735 543.324 341.617 577.068 321.806C577.094 321.791 577.119 321.783 577.153 321.783C577.191 321.782 577.234 321.791 577.271 321.808L583.839 447.077H370.82C366.258 447.077 363.577 451.889 365.418 455.762C376.549 479.182 382.562 498.796 383.254 514.894C383.941 530.864 379.401 543.288 369.402 552.736C359.277 562.302 343.238 569.121 320.341 573.046C297.483 576.964 268.107 577.944 231.651 576.103C218.041 575.415 200.858 574.343 183.725 571.385C166.558 568.422 149.682 563.604 136.584 555.562C123.568 547.57 114.423 536.5 112.205 520.882C109.965 505.11 114.704 484.142 130.813 456.277C133 452.494 130.593 447.077 125.671 447.077H3ZM577.372 96.0205C577.372 96.0205 577.372 96.0194 577.372 96.0176L577.372 96.0205Z" stroke-width="6" />
  </clipPath>
</svg>
