<svg >
  <clipPath
    id="puzzle-footer-inner-4"
    clipPathUnits="objectBoundingBox"
    transform="scale(0.0010449320794148 0.0061349693251534)"
  >
    <path d="m 48.507812,39.183594 c 0.366722,1.932684 -1.555225,3.744727 -3.457031,3.398437 -1.415554,-0.22502 -2.361356,-1.447518 -3.550419,-2.143346 -1.489888,-1.048703 -3.088553,-2.079086 -4.579996,-2.933683 -4.186328,-2.375422 -8.864918,-4.417917 -13.777788,-4.174924 -3.530173,0.149705 -6.819369,2.007268 -9.076172,4.675781 -0.208637,0.230827 -0.686507,0.81798 -0.974609,1.207032 C 9.5271769,44.150503 7.7965476,50.121746 6.537283,56.005658 5.7756951,59.686941 5.2637351,63.365236 4.8849806,67.062346 4.4854799,71.087597 4.2338874,75.313145 4.1057032,79.441997 4.050804,81.580551 4.0056057,83.934736 4.0034579,86.15819 c -0.031135,5.7297 0.34246,11.597834 1.103964,17.19142 1.1091769,7.77317 2.8661728,15.59235 6.5341721,22.59351 2.339433,4.39061 5.730721,8.58778 10.51075,10.39672 2.736857,1.07897 6.014436,1.16671 8.726562,0.68946 4.957502,-0.84708 9.482099,-3.23134 13.707032,-5.86328 1.71404,-0.84323 4.015817,0.31099 4.280791,2.22427 0.09228,3.99345 0.01313,7.99711 0.03952,11.99448 0,4.53841 0,9.07682 0,13.61523 194.93815,0 389.8763,0 584.81445,0 -3.60857,-6.69948 -6.5944,-13.97766 -6.99789,-21.66079 -0.34161,-5.82126 1.27265,-11.7944 4.83344,-16.45078 4.29602,-5.72145 10.69,-9.4254 17.22998,-12.04663 9.69211,-3.80601 20.03086,-5.61159 30.33029,-6.83391 20.13192,-2.272263 40.42767,-1.9883 60.65456,-1.99467 16.63062,0.0989 33.32181,0.43953 49.80791,2.81537 8.81128,1.32128 17.64303,3.17412 25.83627,6.76746 5.73854,2.56076 11.31128,6.18274 14.69642,11.61273 2.88418,4.51444 3.68488,10.11906 2.81919,15.35258 -1.18638,7.31549 -4.7556,13.98567 -8.78492,20.11029 -0.52252,0.78347 -1.05679,1.55844 -1.59907,2.32835 43.48437,0 86.96875,0 130.45312,0 0,-51.66667 0,-103.333333 0,-155 -120.92708,0 -241.85417,0 -362.78125,0 4.37099,6.241248 8.31838,12.998895 10.02726,20.496559 1.21756,5.303037 0.92419,11.108238 -1.69155,15.963175 -2.91971,5.567517 -8.21028,9.441072 -13.75368,12.141828 -7.75445,3.735308 -16.22181,5.694921 -24.66867,7.117545 -15.72516,2.540812 -31.68813,3.043319 -47.58914,3.234018 -11.84918,0.05427 -23.70058,0.115559 -35.54826,-0.117984 C 462.43606,62.499182 447.81817,61.734379 433.48777,58.993944 424.98561,57.306706 416.46522,54.963782 408.914,50.5951 403.40752,47.41309 398.4664,42.809956 396.03094,36.829817 393.52323,30.843026 393.79407,24.059178 395.4638,17.89036 396.7614,13.032423 398.8228,8.411155 401.21484,4 281.88997,4 162.5651,4 43.240234,4 c 1.75586,11.727865 3.511719,23.455729 5.267578,35.183594 z" />
  </clipPath>
</svg>