<svg >
  <clipPath
    id="puzzle-fact-inner-4"
    clipPathUnits="objectBoundingBox"
    transform="scale(0.0022988505747126 0.0037735849056604)"
  >
    <path d="M189.314 84.4444C200.863 84.4444 213.367 83.7805 225.021 81.6857C236.65 79.5955 247.59 76.0539 255.893 70.1944C264.266 64.2852 269.951 56.0113 270.897 44.6767C271.833 33.4516 268.097 19.483 258.271 2.11971C258.265 2.10819 258.262 2.09996 258.261 2.0942C258.259 2.08799 258.258 2.08046 258.258 2.07102C258.258 2.04984 258.265 2.02377 258.277 2.00088C258.277 2.00058 258.277 2.00029 258.277 2H351.17L346.144 78.3562C345.919 81.777 349.69 83.6154 352.332 82.0365C367.703 72.8482 380.278 70.1004 390.454 71.5404C400.594 72.9753 408.671 78.6141 414.988 86.8636C427.716 103.484 433 130.347 433 152.522C433 174.561 426.549 198.122 413.392 211.35C406.874 217.904 398.722 221.921 388.792 222.042C378.812 222.164 366.814 218.352 352.671 208.796C349.984 206.98 345.969 208.915 346.307 212.479L351.107 263H2V2H119.365C119.378 2.02707 119.383 2.05717 119.382 2.08068C119.381 2.09109 119.38 2.09916 119.377 2.1057C119.375 2.1117 119.372 2.12074 119.363 2.13352C107.555 19.4485 102.832 33.4217 103.493 44.6999C104.161 56.1153 110.317 64.3907 119.31 70.2606C128.235 76.0865 140.036 79.6118 152.364 81.694C164.722 83.7813 177.773 84.4444 189.314 84.4444Z"/>
  </clipPath>
</svg>