<svg >
  <clipPath
    id="puzzle-footer-outer-1-sr"
    clipPathUnits="objectBoundingBox"
    transform="scale(0.003448275862069 0.0151515151515152)"
  >
    <path d="m -1,1 c 0,22 0,44 0,66 43.337819,-0.0039 86.676209,0.0078 130.01367,-0.0059 2.00783,-0.02401 3.43874,-2.352615 2.64258,-4.169922 -0.52819,-1.219208 -1.74363,-1.945931 -2.50393,-3.010656 -1.36065,-1.678569 -2.84101,-3.615403 -2.77496,-5.88416 0.20095,-2.06857 2.18218,-3.297261 3.87337,-4.140717 4.24747,-1.963803 8.94657,-2.634443 13.55396,-3.173452 2.71264,-0.279786 5.46194,-0.45454 8.11224,-0.540292 3.87536,-0.127716 7.94484,-0.107843 11.88122,0.236493 1.34161,0.115268 2.47592,0.233112 3.8283,0.40915 4.5014,0.633966 9.08964,1.451313 13.17043,3.546993 1.59223,0.88819 3.47944,2.164254 3.51829,4.187883 -0.12477,2.250235 -1.73662,4.046142 -3.2038,5.614873 -0.95092,1.094213 -2.51437,1.870248 -2.65239,3.468728 -0.29435,1.817485 1.32954,3.639257 3.18633,3.460938 36.45157,0 72.90313,0 109.35469,0 0,-22.666667 0,-45.333333 0,-68 -97.33333,0 -194.666667,0 -292,0 0,0.66666667 0,1.33333333 0,2 z" />
  </clipPath>
</svg>