<svg >
  <clipPath
    id="puzzle-fact-inner-7"
    clipPathUnits="objectBoundingBox"
    transform="scale(0.0019342359767892 0.0036496350364964)"
  >
    <path d="M515 144.086C515 106.884 505.961 87.8386 490.838 81.4214C483.191 78.1768 473.652 77.9787 462.254 80.6718C450.862 83.3634 437.783 88.9042 423.199 96.9167C420.584 98.3533 417.218 96.5389 417.218 93.4193L417.218 2L101.204 2L101.204 54.3529C101.204 57.1762 98.3881 58.982 95.8678 58.1387C59.5591 45.9886 36.2073 46.9668 21.9924 56.095C7.85468 65.1737 2 82.8262 2 106.057C2 129.274 7.93945 150.443 22.2661 162.077C36.4543 173.6 59.6292 176.344 95.5449 160.982C98.097 159.89 101.204 161.657 101.204 164.648L101.204 264.28L167.5 271.453C167.504 271.447 167.509 271.439 167.513 271.43C167.534 271.389 167.54 271.347 167.538 271.319C167.537 271.307 167.535 271.298 167.532 271.291C167.53 271.285 167.524 271.273 167.51 271.255C156.953 258.131 153.937 247.528 157.136 239.046C160.29 230.684 169.161 225.345 179.901 221.843C201.509 214.797 233.292 214.366 253.166 214.366C273.107 214.366 299.664 217.537 317.161 226.04C325.894 230.284 332.78 236.057 335.077 243.827C337.402 251.691 334.825 260.866 326.333 271.386C326.318 271.404 326.313 271.416 326.311 271.421C326.309 271.427 326.307 271.435 326.306 271.446C326.304 271.471 326.309 271.511 326.33 271.552C326.34 271.573 326.35 271.587 326.358 271.595C326.358 271.595 326.358 271.595 326.358 271.595L417.218 264.231L417.218 195.608C417.218 192.662 420.269 190.8 422.876 191.955C437.173 198.284 450.134 202.953 461.523 205.272C472.927 207.594 482.573 207.522 490.357 204.57C505.634 198.778 515 181.264 515 144.086Z"/>
  </clipPath>
</svg>