<svg >
  <clipPath
    id="puzzle-footer-outer-1"
    clipPathUnits="objectBoundingBox"
    transform="scale(0.0010649627263046 0.0061349693251534)"
  >
    <path d="m 0,2 c 0,53.666667 0,107.33333 0,161 109.88929,-0.003 219.77887,0.005 329.66797,-0.004 1.97457,-0.0208 3.38799,-2.28507 2.65625,-4.08789 -1.24625,-2.37536 -2.59448,-4.71072 -3.67077,-7.17585 -2.62248,-5.85537 -4.58693,-12.29625 -3.84312,-18.77675 0.53678,-5.0263 3.1676,-9.68375 6.92302,-13.01858 5.24817,-4.72083 11.9255,-7.45471 18.59868,-9.4878 2.87838,-0.85384 5.79663,-1.56615 8.73438,-2.1836 0.61472,-0.1253 1.55097,-0.30782 2.28906,-0.45507 0.61113,-0.10741 1.68462,-0.30141 2.30273,-0.41602 2.90226,-0.48988 5.85406,-0.91901 8.69994,-1.25942 4.08329,-0.49701 8.39596,-0.88576 12.51516,-1.16946 5.41422,-0.37867 10.86479,-0.59592 16.32397,-0.74885 10.35375,-0.25829 20.88092,-0.21681 31.30233,-0.20577 6.48897,0.0155 13.02148,0.0862 19.44974,0.29704 9.17215,0.28483 18.3447,0.84682 27.45105,2.00638 1.60636,0.21564 3.42892,0.46707 5.11239,0.73642 1.69819,0.27444 3.2416,0.54365 4.95645,0.8792 7.62297,1.53283 15.28426,3.58301 22.06246,7.50189 4.48237,2.60696 8.59471,6.37789 10.31206,11.39616 1.81595,5.23281 0.85623,10.96524 -1.00586,16.04297 -2.06422,5.62943 -5.23046,10.76818 -8.61133,15.68946 -0.93645,1.71408 0.18861,4.13325 2.1542,4.40089 4.15905,0.09 8.32763,0.0128 12.49033,0.0386 119.6569,0 239.31381,0 358.97071,0 1.92087,-13.15165 3.84109,-26.30339 5.76172,-39.45508 5.28305,3.56806 11.41572,6.38225 17.90702,6.33773 5.51808,0.0143 10.85931,-2.41526 14.8215,-6.19222 5.36859,-5.05729 8.73697,-11.85124 11.03228,-18.77205 3.12017,-9.598559 4.19677,-19.82076 3.36742,-29.87016 -0.72811,-9.161377 -2.55906,-18.341811 -6.37236,-26.745486 -2.66364,-5.744979 -6.47694,-11.267925 -12.06073,-14.494709 -4.54811,-2.700029 -10.12843,-3.293576 -15.24769,-2.161936 -4.63822,0.982108 -8.96018,3.087149 -12.95135,5.600005 0,-12.415365 0,-24.830729 0,-37.246094 C 594.73307,0 297.36654,0 0,0 0,0.66666667 0,1.3333333 0,2 Z"/>
  </clipPath>
</svg>