<svg >
  <clipPath
    id="puzzle-footer-inner-1"
    clipPathUnits="objectBoundingBox"
    transform="scale(0.0010649627263046 0.0061349693251534)"
  >
    <path d="m 4,159 c 107.94466,0 215.88932,0 323.83398,0 -3.65643,-6.68827 -6.69973,-13.9579 -7.14559,-21.65293 -0.36769,-5.7863 1.2021,-11.73607 4.72673,-16.37992 4.28188,-5.74759 10.68896,-9.467 17.24021,-12.08959 9.69365,-3.81092 20.03501,-5.61904 30.33664,-6.84755 20.28167,-2.297149 40.72964,-2.01053 61.10763,-2.01662 16.9392,0.1066 33.94936,0.45741 50.72267,3.03349 8.84259,1.43778 17.72331,3.4251 25.82226,7.36523 5.57353,2.74435 10.8663,6.69279 13.77345,12.31631 2.70451,5.09039 2.93172,11.16417 1.6157,16.69079 -1.66172,7.09807 -5.25591,13.56816 -9.28173,19.58079 121.87761,0 243.75521,0 365.63282,0 1.85276,-12.62421 3.66997,-25.25474 5.54492,-37.875 0.3939,-1.96666 2.95402,-2.94542 4.58683,-1.81236 4.6778,3.31879 9.99993,6.20165 15.83728,6.5435 4.63885,0.32244 9.25664,-1.50231 12.68858,-4.58379 4.93703,-4.38353 8.01882,-10.44438 10.1792,-16.59154 1.73097,-5.014821 2.8341,-10.237965 3.39365,-15.510888 0.0861,-0.847645 0.19058,-1.973223 0.24573,-2.934593 0.19032,-2.929078 0.16835,-5.839403 0.02,-8.714385 -0.5082,-9.024787 -2.12507,-18.084538 -5.66025,-26.440866 -2.27869,-5.209959 -5.44789,-10.330645 -10.33203,-13.457031 -3.7615,-2.448466 -8.50728,-3.041255 -12.84882,-2.095273 -4.93077,1.000431 -9.39676,3.484205 -13.56133,6.21832 -1.71833,0.898685 -4.0782,-0.260604 -4.34035,-2.201069 -0.09,-4.159056 -0.0128,-8.327632 -0.0386,-12.490337 0,-7.684896 0,-15.369792 0,-23.054688 C 593.39974,4 298.69987,4 4,4 4,55.666667 4,107.33333 4,159 Z"/>
  </clipPath>
</svg>