<svg >
  <clipPath
    id="puzzle-footer-outer-4-sr"
    clipPathUnits="objectBoundingBox"
    transform="scale(0.003448275862069 0.009009009009009)"
  >
    <path d="m 197.47266,-0.98046875 c -7.39511,0.19225779 -14.87012,0.90552745 -21.93669,3.20448305 -3.42726,1.1910453 -6.99131,2.7622504 -9.22195,5.7526326 -1.63032,2.1261731 -1.83393,5.1382411 -0.62066,7.5096811 1.33317,2.725657 3.69608,4.763371 6.11133,6.515625 -57.60157,0 -115.203127,0 -172.80469,0 0,22.666667 0,45.333333 0,68 38.678385,0 77.356771,0 116.03516,0 -2.31942,2.470801 -4.35418,5.705489 -3.96485,9.234375 0.36726,3.394382 3.0187,5.994892 5.85678,7.598802 4.75872,2.68708 10.21093,3.81054 15.57538,4.52673 9.19451,1.09666 18.66148,0.91 27.62872,-1.56552 4.03487,-1.1817 8.15389,-2.78019 11.16345,-5.82467 2.00133,-1.97985 3.06412,-5.016518 2.18558,-7.764228 -0.74666,-2.528774 -2.59407,-4.551859 -4.57983,-6.205489 40.69987,0 81.39974,0 122.09961,0 0,-22.666667 0,-45.333333 0,-68 -21.61654,0 -43.23307,0 -64.84961,0 2.5518,-2.012137 4.86514,-4.881583 4.8479,-8.287485 0.009,-3.403475 -2.3674,-6.2583053 -5.02288,-8.1249819 -4.5911,-3.1984306 -10.10797,-4.72636829 -15.55855,-5.67738864 -4.27325,-0.70916875 -8.61519,-0.97467336 -12.9442,-0.89256621 z" />
  </clipPath>
</svg>