<svg >
  <clipPath
    id="puzzle-footer-outer-2-sr"
    clipPathUnits="objectBoundingBox"
    transform="scale(0.003448275862069 0.0094339622641509)"
  >
    <path d="m 155.04492,-0.9921875 c -7.30632,0.11820146 -14.6857,0.55062038 -21.77734,2.4316406 -3.44267,0.9949095 -7.0581,2.3590525 -9.35547,5.2539063 -1.76711,2.1972166 -1.95539,5.3255196 -0.86501,7.8677556 0.81007,2.031421 2.13087,3.812314 3.57204,5.438885 C 84.079427,20 41.539714,20 -1,20 c 0,22.666667 0,45.333333 0,68 43.679687,0 87.359375,0 131.03906,0 -1.94633,2.211955 -3.67315,5.105876 -3.13476,8.166016 0.52084,2.991913 3.11382,5.047014 5.70898,6.287104 4.649,2.1785 9.7871,3.00168 14.83946,3.64411 9.25475,1.0732 18.60352,1.07144 27.89867,0.62029 5.73167,-0.37843 11.54741,-0.89112 17.01056,-2.77694 2.85536,-1.02875 5.8758,-2.6559 7.0892,-5.606596 1.12298,-2.728704 0.0504,-5.786727 -1.56756,-8.075414 -0.53633,-0.794368 -1.13916,-1.542908 -1.77619,-2.25857 31.63086,0 63.26172,0 94.89258,0 0,-22.666667 0,-45.333333 0,-68 -35.7194,0 -71.4388,0 -107.1582,0 2.31727,-2.353518 4.53337,-5.310681 4.47851,-8.769531 -0.0642,-3.0499305 -2.28959,-5.5455397 -4.80673,-7.0115954 -4.19678,-2.4682695 -9.05208,-3.47909187 -13.80653,-4.24649396 -4.84904,-0.72372145 -9.76066,-1.02404534 -14.66213,-0.96456714 z" />
  </clipPath>
</svg>