<svg>
  <clipPath
    id="puzzle-outer-7"
    clipPathUnits="objectBoundingBox"
    transform="scale(0.0013869625520111 0.0022222222222222)"
  >
    <path d="M427.415 0C425.103 0 423.716 2.61308 424.839 4.63387C490.05 121.972 390.056 140 313.782 140C237.56 140 122.573 121.996 201.026 4.86698C202.377 2.85114 201.027 0 198.601 0H0V450H585.594L577.222 359.702C576.982 357.117 580.009 355.508 582.139 356.992C677.703 423.602 721 334.869 721 259C721 182.929 685.694 72.6294 581.772 136.704C579.665 138.003 576.827 136.464 576.986 133.993L585.594 0H427.415Z" />
  </clipPath>
</svg>