<svg>
  <clipPath
    id="puzzle-outer-5"
    clipPathUnits="objectBoundingBox"
    transform="scale(0.0017241379310345 0.0013755158184319)"
  >
    <path d="M381.486 137.5C378.929 137.5 377.571 134.458 379.196 132.483C446.701 50.4391 432.318 0 275 0C117.575 0 116.002 52.4319 169.314 132.761C170.646 134.769 169.238 137.5 166.829 137.5H16.7753L0.750265 268.85C0.446618 271.339 3.23644 273.051 5.42251 271.823C94.6061 221.729 122 314.627 122 371C122 427.563 118.129 549.93 5.67598 487.742C3.45138 486.512 0.619625 488.304 1.02826 490.814L16.7753 587.5H232.372C234.773 587.5 236.15 590.272 234.858 592.295C170.195 693.553 256.546 727 355.5 727C454.564 727 512.334 693.965 461.289 591.979C460.281 589.965 461.695 587.5 463.947 587.5H580V137.5H381.486Z"/>
  </clipPath>
</svg>