<svg >
  <clipPath
    id="puzzle-footer-outer-6"
    clipPathUnits="objectBoundingBox"
    transform="scale(0.0010309278350515 0.0045045045045045)"
  >
    <path d="m 734.30664,0.01367188 c -16.71657,0.10861341 -33.50435,0.47037697 -50.05273,3.04296872 -9.08138,1.4828537 -18.19413,3.5638914 -26.49903,7.6365354 -5.98675,2.94757 -11.61543,7.225988 -14.79097,13.221864 -2.92373,5.398828 -3.39977,11.822823 -2.27701,17.782622 1.12087,6.102942 3.59559,11.869415 6.53576,17.302338 -196.44727,0 -392.89453,0 -589.341801,0 0,9.106771 0,18.213542 0,27.320312 -6.576163,-4.069035 -13.727455,-7.581883 -21.462962,-8.657844 -5.726106,-0.82328 -11.80524,0.132457 -16.724888,3.27487 -5.778377,3.616119 -9.689919,9.519542 -12.3816217,15.658413 -3.9296525,9.109699 -5.6906432,18.987129 -6.64434442,28.812459 -1.13618928,12.63252 -0.83018775,25.4091 1.04006292,37.95729 1.3852992,8.80692 3.522618,17.64046 7.7466174,25.55331 2.9919448,5.59816 7.3605708,10.75552 13.2591678,13.38588 5.48664,2.5109 11.823094,2.44338 17.564653,0.89203 6.325831,-1.68192 12.159129,-4.82122 17.603315,-8.39594 0,9.06641 0,18.13281 0,27.19922 304.039711,0 608.079431,0 912.119141,0 0,-54.33333 0,-108.66667 0,-163 -44.92383,0 -89.84766,0 -134.77148,0 4.36609,-6.24119 8.30419,-13.000495 10.00578,-20.496559 1.21425,-5.306028 0.91019,-11.112234 -1.70836,-15.966477 -2.92712,-5.56391 -8.21608,-9.439394 -13.76227,-12.138526 C 822.00981,6.6633318 813.54306,4.7040764 805.09697,3.2807669 789.37959,0.7407323 773.4245,0.23719311 757.53125,0.046875 749.78991,-0.01540084 742.04814,0.00164261 734.30664,0.01367188 Z" />
  </clipPath>
</svg>