<svg>
  <clipPath
    id="puzzle-main-screen"
    clipPathUnits="objectBoundingBox"
    transform="scale(5.555555555555556e-4 0.0011614401858304)"
  >
    <path d="M649.5 195.703C773.232 195.703 931.687 170.308 836.481 8.9903C834.356 5.38836 837.144 0.354349 841.325 0.47162C848.317 0.667738 859.683 0.85065 877.76 0.851105L1632 0L1606.69 146.216C1605.99 150.263 1610.3 153.36 1614.02 151.625C1750.19 88.1841 1800 184.345 1800 292C1800 399.461 1759.92 594.725 1615.42 467.558C1611.89 464.457 1606.12 467.2 1606.69 471.86L1632 680H1303.57C1299.35 680 1297.15 685.119 1299.72 688.47C1419.23 844.589 1188.2 861 1087 861C925.328 861 755.12 802.191 881.229 689.192C884.732 686.053 882.655 680 877.952 680H203L221.933 486.882C222.351 482.62 217.373 479.944 213.821 482.335C30.9692 605.452 1.28009e-09 437.564 0 290C-1.24396e-09 146.601 132.52 128.409 212.332 204.847C215.832 208.198 222.026 205.476 221.579 200.65L203 0H404H455.505C459.713 0 461.934 5.06077 459.383 8.4079C343.616 160.3 524.774 195.703 649.5 195.703Z"/>
  </clipPath>
</svg>
