<svg >
  <clipPath
    id="puzzle-fact-outer-6"
    clipPathUnits="objectBoundingBox"
    transform="scale(0.0022988505747126 0.0023364485981308)"
  >
    <path d="M221.037 0.515607C161.716 4.50115 112.308 24.4303 158.171 77.861C159.303 79.1789 158.421 81.2954 156.684 81.2954H89.004L81.056 173.298C80.9222 174.846 79.1141 175.635 77.8403 174.744C24.4569 137.406 -2.13385e-05 156.924 -2.13385e-05 231.062C-2.13385e-05 305.37 19.4264 345.384 77.9684 297.081C79.1737 296.087 81.0673 296.725 81.3127 298.269L89.004 346.631H190.726C192.204 346.631 193.141 348.243 192.518 349.582C158.529 422.545 212.683 428 249.329 428C285.846 428 369.673 412.605 330.41 349.853C329.56 348.494 330.474 346.631 332.077 346.631H426.453L434.475 264.446C434.656 262.599 432.405 261.49 430.987 262.688C390.176 297.167 354.248 257.345 354.248 204.529C354.248 151.383 383.35 108.035 431.193 136.128C432.681 137.002 434.597 135.79 434.342 134.083L426.453 81.2954H296.951C295.302 81.2954 294.372 79.3805 295.317 78.0299C329.018 29.8973 298.284 -4.67439 221.037 0.515607Z"/>
  </clipPath>
</svg>