<svg >
  <clipPath
    id="puzzle-footer-outer-2"
    clipPathUnits="objectBoundingBox"
    transform="scale(0.0010893246187364 0.0045045045045045)"
  >
    <path d="m 5.9863281,2 c 0.01173,12.45355 -0.023452,24.908905 0.017578,37.361328 0.1288356,1.961973 2.4495229,3.270243 4.2128908,2.445313 1.817387,-1.065976 3.558762,-2.283462 5.45307,-3.226249 4.722027,-2.459888 10.17201,-4.199751 15.529722,-3.177813 4.940091,0.90668 9.029285,4.339829 11.851846,8.361001 4.155373,5.911976 6.432187,12.917042 7.936739,19.923284 1.586746,7.770357 2.27053,15.76205 1.676563,23.680732 -0.118539,1.513715 -0.272602,2.855859 -0.482109,4.385624 -1.173574,8.03788 -3.493763,16.0436 -7.801646,22.98757 -2.885692,4.59525 -6.955443,8.80531 -12.271829,10.42125 -4.930584,1.54567 -10.28675,0.43469 -14.843743,-1.74898 -2.501758,-1.15152 -4.810715,-2.66701 -7.070098,-4.22947 -1.6784643,-0.95148 -4.0797327,0.10971 -4.3998587,2.03919 C 3.745949,135.14614 1.7251389,149.07457 -0.3125,163 c 120.85872,0 241.71745,0 362.57617,0 -3.62637,6.72754 -6.62649,14.04131 -7.00758,21.76072 -0.31622,5.75621 1.27728,11.6548 4.78208,16.27018 4.27808,5.73971 10.67111,9.46176 17.21222,12.08924 9.37553,3.69991 19.37115,5.50985 29.33744,6.73848 19.01235,2.2549 38.19486,2.1365 57.31021,2.13485 17.305,-0.0302 34.66845,-0.23618 51.85287,-2.47195 9.29547,-1.26238 18.61811,-3.06095 27.3194,-6.6641 5.92962,-2.5116 11.73385,-6.05117 15.38674,-11.4958 2.9855,-4.3655 4.01167,-9.86302 3.30857,-15.06279 -0.95466,-7.22388 -4.34528,-13.8566 -8.22945,-19.92317 C 552.802,165.23214 552.03391,164.11118 551.25195,163 673.5013,163 795.75065,163 918,163 918,108.66667 918,54.333333 918,0 613.99544,0 309.99089,0 5.9863281,0 c 0,0.66666667 0,1.3333333 0,2 z"/>
  </clipPath>
</svg>