<svg >
  <clipPath
    id="puzzle-footer-outer-3-sr"
    clipPathUnits="objectBoundingBox"
    transform="scale(0.003448275862069 0.0151515151515152)"
  >
    <path d="m -1,1 c 0,22 0,44 0,66 58.701715,-0.0052 117.4043,0.01042 176.10547,-0.0078 2.04649,-0.04765 3.4159,-2.465523 2.57617,-4.283204 -0.60161,-1.469151 -2.27702,-1.918528 -3.41713,-2.867789 -2.0538,-1.513254 -4.25251,-3.19269 -5.18605,-5.656287 -0.62965,-1.638589 0.51393,-3.259621 1.78413,-4.203914 3.44781,-2.805889 7.86403,-3.993579 12.14207,-4.854795 5.13955,-0.995998 10.39094,-1.182954 15.61288,-1.118186 6.94521,-0.0054 14.00923,0.812354 20.4979,3.403373 2.73403,1.168853 5.58709,2.62836 7.24759,5.19739 0.85578,1.455032 1.02325,3.42565 -0.006,4.844907 -1.37375,2.08244 -3.55179,3.425142 -5.64189,4.694755 -0.4995,1.277289 -0.49222,2.845898 0.50196,3.890624 0.83952,0.990696 2.2073,1.030486 3.40117,0.960938 22.12734,0 44.25469,0 66.38203,0 0,-22.666667 0,-45.333333 0,-68 -32.48627,0.007161 -64.97345,-0.014322 -97.45914,0.0107396 -1.96822,0.0811798 -3.33311,2.36340854 -2.55844,4.15332294 0.42939,1.0384957 1.49944,1.6191345 2.1514,2.514755 1.2917,1.5204109 2.73348,3.2467657 2.77579,5.3394395 -0.12409,1.800625 -1.90627,2.812629 -3.35674,3.523757 -4.00455,1.784587 -8.41805,2.340138 -12.73764,2.816159 -3.50412,0.350447 -7.13772,0.520081 -10.56507,0.585602 -5.00737,0.104915 -10.06817,0.07106 -14.96305,-0.246509 -1.70856,-0.10975 -3.31099,-0.239157 -5.05305,-0.423177 -4.87202,-0.562729 -9.8246,-1.248191 -14.36962,-3.183532 -1.58602,-0.763634 -3.45601,-1.692215 -3.99613,-3.506821 -0.30679,-1.8953039 1.02591,-3.5465153 2.15304,-4.920888 0.71509,-0.9780469 1.89221,-1.6084836 2.36036,-2.7515314 C 136.10501,0.92417384 134.14602,-1.2207717 132.12187,-1 87.747917,-1 43.373958,-1 -1,-1 c 0,0.66666667 0,1.33333333 0,2 z" />
  </clipPath>
</svg>