<svg >
  <clipPath
    id="puzzle-footer-inner-3-sr"
    clipPathUnits="objectBoundingBox"
    transform="scale(0.003448275862069 0.0151515151515152)"
  >
    <path d="M289 1H193.777C192.997 1 192.527 1.87574 192.906 2.55711C210 19 179.121 20.0002 164 20C148.863 20.0002 117 17.7808 133.343 2.46093C133.879 1.95929 133.156 1 132.422 1H1V65H174.918C175.957 64.9914 176.303 63.5294 175.413 62.9852C165.448 56.8947 164.977 51.6939 170.173 47.9928C175.096 44.0724 185.653 41.7748 197.495 42.018L197.5 42.0179C214.803 41.6733 228.341 47.316 228.978 54.2239C229.573 57.1413 227.696 60.3162 222.44 63.4343C222.206 64.1148 222.614 65 223.418 65L289 65V1Z" />
  </clipPath>
</svg>