<svg>
  <clipPath
    id="puzzle-outer-4"
    clipPathUnits="objectBoundingBox"
    transform="scale(0.0017064846416382 0.0022222222222222)"
  >
    <path d="M179.898 4.19936C180.629 2.21335 179.207 0 177.091 0H0L8.63616 112.75C8.8048 114.952 11.2745 116.191 13.2067 115.123C101.203 66.4398 139 112.322 139 196C139 280.069 137.533 369.519 13.1749 309.063C11.2408 308.123 8.85009 309.382 8.71502 311.528L0 450H125.221C127.433 450 128.858 447.62 127.961 445.599C91.2779 362.94 170.432 333 252 333C322.226 333 401.233 343.695 355.519 445.611C354.619 447.618 356.031 450 358.231 450H567L584.935 324.926C585.32 322.245 582.159 320.478 579.967 322.07C499.364 380.602 466.5 301.478 466.5 234C466.5 166.619 503.545 81.4499 579.948 139.193C582.127 140.839 585.354 139.101 584.996 136.394L567 0H393.5C391.359 0 389.938 2.25867 390.71 4.25511C426.419 96.5196 341.618 113.5 283.5 113.5C225.353 113.5 145.185 98.445 179.898 4.19936Z"/>
  </clipPath>
</svg>