<svg>
  <clipPath
    id="puzzle-inner-7"
    clipPathUnits="objectBoundingBox"
    transform="scale(0.0013869625520111 0.0022222222222222)"
  >
    <path d="M313.782 143C332.951 143 353.701 141.869 373.028 138.3C392.319 134.738 410.427 128.706 424.131 118.746C437.942 108.708 447.243 94.6908 448.715 75.5166C450.174 56.5027 443.907 32.7684 427.461 3.17654C427.452 3.15984 427.448 3.14779 427.446 3.1391C427.443 3.12975 427.442 3.11829 427.442 3.10392C427.442 3.07216 427.452 3.03367 427.47 3H582.395L573.992 133.801C573.659 138.984 579.411 141.684 583.346 139.257C608.963 123.463 629.948 118.665 646.951 121.054C663.899 123.436 677.402 133.031 687.957 147.098C709.205 175.415 718 221.234 718 259C718 296.564 707.249 336.789 685.259 359.331C674.356 370.507 660.723 377.321 644.129 377.451C627.453 377.582 607.43 370.964 583.855 354.531C579.861 351.747 573.733 354.577 574.234 359.979L582.303 447H3V3H198.537C198.555 3.03923 198.563 3.08287 198.561 3.11782C198.561 3.13383 198.558 3.14629 198.555 3.15629C198.552 3.1655 198.546 3.17886 198.534 3.19748C178.76 32.7193 170.846 56.46 171.832 75.5503C172.829 94.8431 182.883 108.865 197.727 118.847C212.464 128.756 232.007 134.763 252.462 138.313C272.962 141.87 294.625 143 313.782 143Z"/>
  </clipPath>
</svg>