<svg >
  <clipPath
    id="puzzle-footer-outer-6-sr"
    clipPathUnits="objectBoundingBox"
    transform="scale(0.003448275862069 0.0106382978723404)"
  >
    <path d="m 198.19336,-0.98828125 c -7.98985,0.13727859 -16.04104,0.54264308 -23.85289,2.33865885 -3.85748,0.976351 -7.89457,2.229573 -10.77406,5.1203255 -1.88076,1.8909486 -2.67027,4.7720199 -1.91608,7.3423009 1.04036,3.742745 3.83395,6.653734 6.60648,9.232087 1.54929,1.401728 3.18065,2.710618 4.85842,3.954909 C 115.07682,27 57.038411,27 -1,27 c 0,22.666667 0,45.333333 0,68 97.333333,0 194.66667,0 292,0 0,-22.666667 0,-45.333333 0,-68 -20.39583,0 -40.79167,0 -61.1875,0 3.38556,-2.696528 6.78525,-5.743445 8.46094,-9.835938 1.12252,-2.721603 0.81148,-6.007635 -1.01412,-8.3536686 -2.38692,-3.1671183 -6.15089,-4.8771682 -9.79751,-6.1562195 -7.17861,-2.38742728 -14.77126,-3.21459791 -22.29579,-3.56433015 -2.32318,-0.0868854 -4.64805,-0.10064375 -6.97266,-0.078125 z" />
  </clipPath>
</svg>