<svg >
  <clipPath
    id="puzzle-fact-outer-5"
    clipPathUnits="objectBoundingBox"
    transform="scale(0.0022988505747126 0.0037593984962406)"
  >
    <path d="M133.321 2.96315C133.936 1.61319 132.992 0 131.508 0H0L6.41153 66.6553C6.54328 68.025 8.02495 68.8386 9.28275 68.2805C74.9762 39.1295 103.183 66.2632 103.183 115.858C103.183 165.643 102.089 218.619 9.27484 182.494C8.01862 182.005 6.5731 182.835 6.46688 184.179L0 266H92.9511C94.5097 266 95.452 264.251 94.7037 262.884C68.171 214.413 126.728 196.84 187.065 196.84C239.048 196.84 297.514 203.126 264.194 262.898C263.439 264.252 264.369 266 265.919 266H420.896L434.198 192.133C434.506 190.423 432.587 189.173 431.087 190.05C370.842 225.272 346.293 178.332 346.293 138.32C346.293 98.3547 373.979 47.8036 431.087 82.6295C432.579 83.5393 434.535 82.3122 434.249 80.5883L420.896 0H292.067C290.564 0 289.62 1.65034 290.269 3.00603C316.161 57.1141 253.46 67.0911 210.448 67.0911C167.409 67.0911 108.117 58.2432 133.321 2.96315Z"/>
  </clipPath>
</svg>