<svg>
  <clipPath
    id="puzzle-second-screen"
    clipPathUnits="objectBoundingBox"
    transform="scale(5.561735261401557e-4 9.433962264150943e-4)"
  >
    <path d="M1063.42 276C1127 284.5 1380.5 292.818 1411.5 166C1431.67 83.4925 1370.35 32.7196 1336.22 11.5118C1331.61 8.64561 1333.78 0 1339.21 0H1718.27L1795.64 418.395C1796.62 423.726 1788.49 427.452 1784.81 423.47C1762.21 399.008 1715.26 359 1650 359C1556 359 1488 451.5 1488 608.5C1488 765.5 1562.9 867.5 1650 867.5C1714 867.5 1764.93 822.96 1787.45 799.332C1791 795.607 1798.06 798.824 1797.34 803.92L1761.39 1060H725.129C720.473 1060 718.055 1053.93 721.278 1050.57C741.012 1029.99 782.651 977.873 769.5 915.5C752 832.5 617.262 793 523 784C428.738 775 188.524 784 188.524 944.5C188.524 986.31 215.497 1025.49 232.161 1045.71C235.44 1049.69 231.412 1056.34 226.435 1054.99L0.21124 994L0.00373872 509.726C0.00208331 505.862 4.19624 503.455 7.5393 505.392C83.2646 549.257 166.065 588.986 217.5 528.5C270.648 466 277.592 324 238 222.5C200.65 126.748 89.154 133.785 13.2597 190.299C9.25604 193.28 3.34948 189.425 4.73697 184.63L58.1616 0H939.968C944.266 0 946.674 5.1367 944.007 8.50707C925.683 31.6644 877.979 97.9208 882.451 155C887.974 225.5 978.738 264.68 1063.42 276Z"/>
  </clipPath>
</svg>
