<svg >
  <clipPath
    id="puzzle-fact-outer-10"
    clipPathUnits="objectBoundingBox"
    transform="scale(0.0025252525252525 0.0029239766081871)"
  >
    <path d="M396 0H-5.00679e-06L4.46598 56.6108C4.58335 58.0986 6.27968 58.9116 7.56953 58.1609C70.6008 21.4761 96.4702 69.1341 96.4702 109.105C96.4702 149.256 98.1223 234.716 7.56689 188.148C6.27068 187.481 4.62292 188.315 4.53566 189.77L-5.00679e-06 265.39H145.669C147.199 265.39 148.145 267.075 147.417 268.422C117.548 323.7 141.425 345.813 239.826 341.469C276.511 339.849 353.041 334.563 309.814 268.632C308.929 267.282 309.834 265.39 311.448 265.39H396V0Z"/>
  </clipPath>
</svg>