<svg width="18" height="19" viewBox="0 0 18 19" fill="none" stroke="currentColor" xmlns="http://www.w3.org/2000/svg">
  <path d="M9 0.5L9.00174 9.49115L12.4442 1.18508L9.00501 9.49252L15.3639 3.13604L9.00748 9.49499L17.3149 6.05583L9.00885 9.49826L18 9.5L9.00885 9.50174L17.3149 12.9442L9.00748 9.50501L15.3639 15.8639L9.00501 9.50748L12.4442 17.8149L9.00174 9.50885L9 18.5L8.99826 9.50885L5.55583 17.8149L8.99499 9.50748L2.63604 15.8639L8.99252 9.50501L0.685081 12.9442L8.99115 9.50174L0 9.5L8.99115 9.49826L0.685081 6.05583L8.99252 9.49499L2.63604 3.13604L8.99499 9.49252L5.55583 1.18508L8.99826 9.49115L9 0.5Z"/>
</svg>
